<?xml version="1.0" encoding="utf-8" standalone="no"?>
<!DOCTYPE svg PUBLIC "-//W3C//DTD SVG 1.1//EN"
  "http://www.w3.org/Graphics/SVG/1.1/DTD/svg11.dtd">
<!-- Created with matplotlib (https://matplotlib.org/) -->
<svg height="288pt" version="1.1" viewBox="0 0 720 288" width="720pt" xmlns="http://www.w3.org/2000/svg" xmlns:xlink="http://www.w3.org/1999/xlink">
 <defs>
  <style type="text/css">
*{stroke-linecap:butt;stroke-linejoin:round;}
  </style>
 </defs>
 <g id="figure_1">
  <g id="patch_1">
   <path d="M 0 288 
L 720 288 
L 720 0 
L 0 0 
z
" style="fill:#ffffff;"/>
  </g>
  <g id="axes_1">
   <g id="patch_2">
    <path d="M 32.55 129.6 
L 152.04 129.6 
L 152.04 30.8 
L 32.55 30.8 
z
" style="fill:#ffffff;"/>
   </g>
   <g id="matplotlib.axis_1"/>
   <g id="matplotlib.axis_2">
    <g id="ytick_1">
     <g id="line2d_1">
      <defs>
       <path d="M 0 0 
L -9 0 
" id="m496822938f" style="stroke:#262626;stroke-width:1.875;"/>
      </defs>
      <g>
       <use style="fill:#262626;stroke:#262626;stroke-width:1.875;" x="32.55" xlink:href="#m496822938f" y="107.396088"/>
      </g>
     </g>
     <g id="text_1">
      <!-- 1 -->
      <defs>
       <path d="M 37.25 0 
L 28.46875 0 
L 28.46875 56 
Q 25.296875 52.984375 20.140625 49.953125 
Q 14.984375 46.921875 10.890625 45.40625 
L 10.890625 53.90625 
Q 18.265625 57.375 23.78125 62.296875 
Q 29.296875 67.234375 31.59375 71.875 
L 37.25 71.875 
z
" id="ArialMT-49"/>
      </defs>
      <g style="fill:#262626;" transform="translate(10.874453 113.301283)scale(0.165 -0.165)">
       <use xlink:href="#ArialMT-49"/>
      </g>
     </g>
    </g>
    <g id="ytick_2">
     <g id="line2d_2">
      <g>
       <use style="fill:#262626;stroke:#262626;stroke-width:1.875;" x="32.55" xlink:href="#m496822938f" y="65.868558"/>
      </g>
     </g>
     <g id="text_2">
      <!-- 2 -->
      <defs>
       <path d="M 50.34375 8.453125 
L 50.34375 0 
L 3.03125 0 
Q 2.9375 3.171875 4.046875 6.109375 
Q 5.859375 10.9375 9.828125 15.625 
Q 13.8125 20.3125 21.34375 26.46875 
Q 33.015625 36.03125 37.109375 41.625 
Q 41.21875 47.21875 41.21875 52.203125 
Q 41.21875 57.421875 37.46875 61 
Q 33.734375 64.59375 27.734375 64.59375 
Q 21.390625 64.59375 17.578125 60.78125 
Q 13.765625 56.984375 13.71875 50.25 
L 4.6875 51.171875 
Q 5.609375 61.28125 11.65625 66.578125 
Q 17.71875 71.875 27.9375 71.875 
Q 38.234375 71.875 44.234375 66.15625 
Q 50.25 60.453125 50.25 52 
Q 50.25 47.703125 48.484375 43.546875 
Q 46.734375 39.40625 42.65625 34.8125 
Q 38.578125 30.21875 29.109375 22.21875 
Q 21.1875 15.578125 18.9375 13.203125 
Q 16.703125 10.84375 15.234375 8.453125 
z
" id="ArialMT-50"/>
      </defs>
      <g style="fill:#262626;" transform="translate(10.874453 71.773753)scale(0.165 -0.165)">
       <use xlink:href="#ArialMT-50"/>
      </g>
     </g>
    </g>
    <g id="text_3">
     <!-- Muconate Flux -->
     <defs>
      <path d="M 7.421875 0 
L 7.421875 71.578125 
L 21.6875 71.578125 
L 38.625 20.90625 
Q 40.96875 13.8125 42.046875 10.296875 
Q 43.265625 14.203125 45.84375 21.78125 
L 62.984375 71.578125 
L 75.734375 71.578125 
L 75.734375 0 
L 66.609375 0 
L 66.609375 59.90625 
L 45.796875 0 
L 37.25 0 
L 16.546875 60.9375 
L 16.546875 0 
z
" id="ArialMT-77"/>
      <path d="M 40.578125 0 
L 40.578125 7.625 
Q 34.515625 -1.171875 24.125 -1.171875 
Q 19.53125 -1.171875 15.546875 0.578125 
Q 11.578125 2.34375 9.640625 5 
Q 7.71875 7.671875 6.9375 11.53125 
Q 6.390625 14.109375 6.390625 19.734375 
L 6.390625 51.859375 
L 15.1875 51.859375 
L 15.1875 23.09375 
Q 15.1875 16.21875 15.71875 13.8125 
Q 16.546875 10.359375 19.234375 8.375 
Q 21.921875 6.390625 25.875 6.390625 
Q 29.828125 6.390625 33.296875 8.421875 
Q 36.765625 10.453125 38.203125 13.9375 
Q 39.65625 17.4375 39.65625 24.078125 
L 39.65625 51.859375 
L 48.4375 51.859375 
L 48.4375 0 
z
" id="ArialMT-117"/>
      <path d="M 40.4375 19 
L 49.078125 17.875 
Q 47.65625 8.9375 41.8125 3.875 
Q 35.984375 -1.171875 27.484375 -1.171875 
Q 16.84375 -1.171875 10.375 5.78125 
Q 3.90625 12.75 3.90625 25.734375 
Q 3.90625 34.125 6.6875 40.421875 
Q 9.46875 46.734375 15.15625 49.875 
Q 20.84375 53.03125 27.546875 53.03125 
Q 35.984375 53.03125 41.359375 48.75 
Q 46.734375 44.484375 48.25 36.625 
L 39.703125 35.296875 
Q 38.484375 40.53125 35.375 43.15625 
Q 32.28125 45.796875 27.875 45.796875 
Q 21.234375 45.796875 17.078125 41.03125 
Q 12.9375 36.28125 12.9375 25.984375 
Q 12.9375 15.53125 16.9375 10.796875 
Q 20.953125 6.0625 27.390625 6.0625 
Q 32.5625 6.0625 36.03125 9.234375 
Q 39.5 12.40625 40.4375 19 
z
" id="ArialMT-99"/>
      <path d="M 3.328125 25.921875 
Q 3.328125 40.328125 11.328125 47.265625 
Q 18.015625 53.03125 27.640625 53.03125 
Q 38.328125 53.03125 45.109375 46.015625 
Q 51.90625 39.015625 51.90625 26.65625 
Q 51.90625 16.65625 48.90625 10.90625 
Q 45.90625 5.171875 40.15625 2 
Q 34.421875 -1.171875 27.640625 -1.171875 
Q 16.75 -1.171875 10.03125 5.8125 
Q 3.328125 12.796875 3.328125 25.921875 
z
M 12.359375 25.921875 
Q 12.359375 15.96875 16.703125 11.015625 
Q 21.046875 6.0625 27.640625 6.0625 
Q 34.1875 6.0625 38.53125 11.03125 
Q 42.875 16.015625 42.875 26.21875 
Q 42.875 35.84375 38.5 40.796875 
Q 34.125 45.75 27.640625 45.75 
Q 21.046875 45.75 16.703125 40.8125 
Q 12.359375 35.890625 12.359375 25.921875 
z
" id="ArialMT-111"/>
      <path d="M 6.59375 0 
L 6.59375 51.859375 
L 14.5 51.859375 
L 14.5 44.484375 
Q 20.21875 53.03125 31 53.03125 
Q 35.6875 53.03125 39.625 51.34375 
Q 43.5625 49.65625 45.515625 46.921875 
Q 47.46875 44.1875 48.25 40.4375 
Q 48.734375 37.984375 48.734375 31.890625 
L 48.734375 0 
L 39.9375 0 
L 39.9375 31.546875 
Q 39.9375 36.921875 38.90625 39.578125 
Q 37.890625 42.234375 35.28125 43.8125 
Q 32.671875 45.40625 29.15625 45.40625 
Q 23.53125 45.40625 19.453125 41.84375 
Q 15.375 38.28125 15.375 28.328125 
L 15.375 0 
z
" id="ArialMT-110"/>
      <path d="M 40.4375 6.390625 
Q 35.546875 2.25 31.03125 0.53125 
Q 26.515625 -1.171875 21.34375 -1.171875 
Q 12.796875 -1.171875 8.203125 3 
Q 3.609375 7.171875 3.609375 13.671875 
Q 3.609375 17.484375 5.34375 20.625 
Q 7.078125 23.78125 9.890625 25.6875 
Q 12.703125 27.59375 16.21875 28.5625 
Q 18.796875 29.25 24.03125 29.890625 
Q 34.671875 31.15625 39.703125 32.90625 
Q 39.75 34.71875 39.75 35.203125 
Q 39.75 40.578125 37.25 42.78125 
Q 33.890625 45.75 27.25 45.75 
Q 21.046875 45.75 18.09375 43.578125 
Q 15.140625 41.40625 13.71875 35.890625 
L 5.125 37.0625 
Q 6.296875 42.578125 8.984375 45.96875 
Q 11.671875 49.359375 16.75 51.1875 
Q 21.828125 53.03125 28.515625 53.03125 
Q 35.15625 53.03125 39.296875 51.46875 
Q 43.453125 49.90625 45.40625 47.53125 
Q 47.359375 45.171875 48.140625 41.546875 
Q 48.578125 39.3125 48.578125 33.453125 
L 48.578125 21.734375 
Q 48.578125 9.46875 49.140625 6.21875 
Q 49.703125 2.984375 51.375 0 
L 42.1875 0 
Q 40.828125 2.734375 40.4375 6.390625 
z
M 39.703125 26.03125 
Q 34.90625 24.078125 25.34375 22.703125 
Q 19.921875 21.921875 17.671875 20.9375 
Q 15.4375 19.96875 14.203125 18.09375 
Q 12.984375 16.21875 12.984375 13.921875 
Q 12.984375 10.40625 15.640625 8.0625 
Q 18.3125 5.71875 23.4375 5.71875 
Q 28.515625 5.71875 32.46875 7.9375 
Q 36.421875 10.15625 38.28125 14.015625 
Q 39.703125 17 39.703125 22.796875 
z
" id="ArialMT-97"/>
      <path d="M 25.78125 7.859375 
L 27.046875 0.09375 
Q 23.34375 -0.6875 20.40625 -0.6875 
Q 15.625 -0.6875 12.984375 0.828125 
Q 10.359375 2.34375 9.28125 4.8125 
Q 8.203125 7.28125 8.203125 15.1875 
L 8.203125 45.015625 
L 1.765625 45.015625 
L 1.765625 51.859375 
L 8.203125 51.859375 
L 8.203125 64.703125 
L 16.9375 69.96875 
L 16.9375 51.859375 
L 25.78125 51.859375 
L 25.78125 45.015625 
L 16.9375 45.015625 
L 16.9375 14.703125 
Q 16.9375 10.9375 17.40625 9.859375 
Q 17.875 8.796875 18.921875 8.15625 
Q 19.96875 7.515625 21.921875 7.515625 
Q 23.390625 7.515625 25.78125 7.859375 
z
" id="ArialMT-116"/>
      <path d="M 42.09375 16.703125 
L 51.171875 15.578125 
Q 49.03125 7.625 43.21875 3.21875 
Q 37.40625 -1.171875 28.375 -1.171875 
Q 17 -1.171875 10.328125 5.828125 
Q 3.65625 12.84375 3.65625 25.484375 
Q 3.65625 38.578125 10.390625 45.796875 
Q 17.140625 53.03125 27.875 53.03125 
Q 38.28125 53.03125 44.875 45.953125 
Q 51.46875 38.875 51.46875 26.03125 
Q 51.46875 25.25 51.421875 23.6875 
L 12.75 23.6875 
Q 13.234375 15.140625 17.578125 10.59375 
Q 21.921875 6.0625 28.421875 6.0625 
Q 33.25 6.0625 36.671875 8.59375 
Q 40.09375 11.140625 42.09375 16.703125 
z
M 13.234375 30.90625 
L 42.1875 30.90625 
Q 41.609375 37.453125 38.875 40.71875 
Q 34.671875 45.796875 27.984375 45.796875 
Q 21.921875 45.796875 17.796875 41.75 
Q 13.671875 37.703125 13.234375 30.90625 
z
" id="ArialMT-101"/>
      <path id="ArialMT-32"/>
      <path d="M 8.203125 0 
L 8.203125 71.578125 
L 56.5 71.578125 
L 56.5 63.140625 
L 17.671875 63.140625 
L 17.671875 40.96875 
L 51.265625 40.96875 
L 51.265625 32.515625 
L 17.671875 32.515625 
L 17.671875 0 
z
" id="ArialMT-70"/>
      <path d="M 6.390625 0 
L 6.390625 71.578125 
L 15.1875 71.578125 
L 15.1875 0 
z
" id="ArialMT-108"/>
      <path d="M 0.734375 0 
L 19.671875 26.953125 
L 2.15625 51.859375 
L 13.140625 51.859375 
L 21.09375 39.703125 
Q 23.34375 36.234375 24.703125 33.890625 
Q 26.859375 37.109375 28.65625 39.59375 
L 37.40625 51.859375 
L 47.90625 51.859375 
L 29.984375 27.4375 
L 49.265625 0 
L 38.484375 0 
L 27.828125 16.109375 
L 25 20.453125 
L 11.375 0 
z
" id="ArialMT-120"/>
     </defs>
     <g style="fill:#262626;" transform="translate(3.296953 139.223125)rotate(-90)scale(0.18 -0.18)">
      <use xlink:href="#ArialMT-77"/>
      <use x="83.300781" xlink:href="#ArialMT-117"/>
      <use x="138.916016" xlink:href="#ArialMT-99"/>
      <use x="188.916016" xlink:href="#ArialMT-111"/>
      <use x="244.53125" xlink:href="#ArialMT-110"/>
      <use x="300.146484" xlink:href="#ArialMT-97"/>
      <use x="355.761719" xlink:href="#ArialMT-116"/>
      <use x="383.544922" xlink:href="#ArialMT-101"/>
      <use x="439.160156" xlink:href="#ArialMT-32"/>
      <use x="466.943359" xlink:href="#ArialMT-70"/>
      <use x="528.027344" xlink:href="#ArialMT-108"/>
      <use x="550.244141" xlink:href="#ArialMT-117"/>
      <use x="605.859375" xlink:href="#ArialMT-120"/>
     </g>
    </g>
   </g>
   <g id="line2d_3">
    <defs>
     <path d="M 0 2.25 
C 0.596707 2.25 1.169055 2.012926 1.59099 1.59099 
C 2.012926 1.169055 2.25 0.596707 2.25 0 
C 2.25 -0.596707 2.012926 -1.169055 1.59099 -1.59099 
C 1.169055 -2.012926 0.596707 -2.25 0 -2.25 
C -0.596707 -2.25 -1.169055 -2.012926 -1.59099 -1.59099 
C -2.012926 -1.169055 -2.25 -0.596707 -2.25 0 
C -2.25 0.596707 -2.012926 1.169055 -1.59099 1.59099 
C -1.169055 2.012926 -0.596707 2.25 0 2.25 
z
" id="mf77c02cab5" style="stroke:#4c72b0;"/>
    </defs>
    <g clip-path="url(#p92a2954b68)">
     <use style="fill:#4c72b0;stroke:#4c72b0;" x="70.704551" xlink:href="#mf77c02cab5" y="112.308754"/>
     <use style="fill:#4c72b0;stroke:#4c72b0;" x="84.418307" xlink:href="#mf77c02cab5" y="109.036122"/>
     <use style="fill:#4c72b0;stroke:#4c72b0;" x="92.370135" xlink:href="#mf77c02cab5" y="93.246513"/>
     <use style="fill:#4c72b0;stroke:#4c72b0;" x="94.837411" xlink:href="#mf77c02cab5" y="77.457171"/>
     <use style="fill:#4c72b0;stroke:#4c72b0;" x="121.794513" xlink:href="#mf77c02cab5" y="58.515881"/>
     <use style="fill:#4c72b0;stroke:#4c72b0;" x="80.887856" xlink:href="#mf77c02cab5" y="100.178014"/>
     <use style="fill:#4c72b0;stroke:#4c72b0;" x="76.415992" xlink:href="#mf77c02cab5" y="101.647663"/>
     <use style="fill:#4c72b0;stroke:#4c72b0;" x="100.125959" xlink:href="#mf77c02cab5" y="100.792572"/>
     <use style="fill:#4c72b0;stroke:#4c72b0;" x="68.460006" xlink:href="#mf77c02cab5" y="107.396088"/>
     <use style="fill:#4c72b0;stroke:#4c72b0;" x="92.193731" xlink:href="#mf77c02cab5" y="101.88982"/>
     <use style="fill:#4c72b0;stroke:#4c72b0;" x="114.780535" xlink:href="#mf77c02cab5" y="85.539788"/>
     <use style="fill:#4c72b0;stroke:#4c72b0;" x="89.016088" xlink:href="#mf77c02cab5" y="100.32664"/>
     <use style="fill:#4c72b0;stroke:#4c72b0;" x="37.981364" xlink:href="#mf77c02cab5" y="125.109091"/>
     <use style="fill:#4c72b0;stroke:#4c72b0;" x="48.465803" xlink:href="#mf77c02cab5" y="123.684124"/>
     <use style="fill:#4c72b0;stroke:#4c72b0;" x="80.813612" xlink:href="#mf77c02cab5" y="106.209728"/>
     <use style="fill:#4c72b0;stroke:#4c72b0;" x="124.423344" xlink:href="#mf77c02cab5" y="82.994642"/>
     <use style="fill:#4c72b0;stroke:#4c72b0;" x="101.989186" xlink:href="#mf77c02cab5" y="74.404356"/>
     <use style="fill:#4c72b0;stroke:#4c72b0;" x="146.608636" xlink:href="#mf77c02cab5" y="70.392553"/>
     <use style="fill:#4c72b0;stroke:#4c72b0;" x="50.985941" xlink:href="#mf77c02cab5" y="108.962101"/>
     <use style="fill:#4c72b0;stroke:#4c72b0;" x="117.108826" xlink:href="#mf77c02cab5" y="95.840871"/>
     <use style="fill:#4c72b0;stroke:#4c72b0;" x="101.250904" xlink:href="#mf77c02cab5" y="78.845314"/>
     <use style="fill:#4c72b0;stroke:#4c72b0;" x="115.944681" xlink:href="#mf77c02cab5" y="64.611869"/>
     <use style="fill:#4c72b0;stroke:#4c72b0;" x="112.872167" xlink:href="#mf77c02cab5" y="35.290909"/>
     <use style="fill:#4c72b0;stroke:#4c72b0;" x="119.941383" xlink:href="#mf77c02cab5" y="84.933191"/>
    </g>
   </g>
   <g id="patch_3">
    <path d="M 32.55 129.6 
L 32.55 30.8 
" style="fill:none;stroke:#262626;stroke-linecap:square;stroke-linejoin:miter;stroke-width:1.875;"/>
   </g>
   <g id="patch_4">
    <path d="M 32.55 129.6 
L 152.04 129.6 
" style="fill:none;stroke:#262626;stroke-linecap:square;stroke-linejoin:miter;stroke-width:1.875;"/>
   </g>
   <g id="text_4">
    <!-- atpD -->
    <defs>
     <path d="M 6.59375 -19.875 
L 6.59375 51.859375 
L 14.59375 51.859375 
L 14.59375 45.125 
Q 17.4375 49.078125 21 51.046875 
Q 24.5625 53.03125 29.640625 53.03125 
Q 36.28125 53.03125 41.359375 49.609375 
Q 46.4375 46.1875 49.015625 39.953125 
Q 51.609375 33.734375 51.609375 26.3125 
Q 51.609375 18.359375 48.75 11.984375 
Q 45.90625 5.609375 40.453125 2.21875 
Q 35.015625 -1.171875 29 -1.171875 
Q 24.609375 -1.171875 21.109375 0.6875 
Q 17.625 2.546875 15.375 5.375 
L 15.375 -19.875 
z
M 14.546875 25.640625 
Q 14.546875 15.625 18.59375 10.84375 
Q 22.65625 6.0625 28.421875 6.0625 
Q 34.28125 6.0625 38.453125 11.015625 
Q 42.625 15.96875 42.625 26.375 
Q 42.625 36.28125 38.546875 41.203125 
Q 34.46875 46.140625 28.8125 46.140625 
Q 23.1875 46.140625 18.859375 40.890625 
Q 14.546875 35.640625 14.546875 25.640625 
z
" id="ArialMT-112"/>
     <path d="M 7.71875 0 
L 7.71875 71.578125 
L 32.375 71.578125 
Q 40.71875 71.578125 45.125 70.5625 
Q 51.265625 69.140625 55.609375 65.4375 
Q 61.28125 60.640625 64.078125 53.1875 
Q 66.890625 45.75 66.890625 36.1875 
Q 66.890625 28.03125 64.984375 21.734375 
Q 63.09375 15.4375 60.109375 11.296875 
Q 57.125 7.171875 53.578125 4.796875 
Q 50.046875 2.4375 45.046875 1.21875 
Q 40.046875 0 33.546875 0 
z
M 17.1875 8.453125 
L 32.46875 8.453125 
Q 39.546875 8.453125 43.578125 9.765625 
Q 47.609375 11.078125 50 13.484375 
Q 53.375 16.84375 55.25 22.53125 
Q 57.125 28.21875 57.125 36.328125 
Q 57.125 47.5625 53.4375 53.59375 
Q 49.75 59.625 44.484375 61.671875 
Q 40.671875 63.140625 32.234375 63.140625 
L 17.1875 63.140625 
z
" id="ArialMT-68"/>
    </defs>
    <g style="fill:#262626;" transform="translate(73.285312 24.8)scale(0.18 -0.18)">
     <use xlink:href="#ArialMT-97"/>
     <use x="55.615234" xlink:href="#ArialMT-116"/>
     <use x="83.398438" xlink:href="#ArialMT-112"/>
     <use x="139.013672" xlink:href="#ArialMT-68"/>
    </g>
   </g>
  </g>
  <g id="axes_2">
   <g id="patch_5">
    <path d="M 171.84 129.6 
L 291.33 129.6 
L 291.33 30.8 
L 171.84 30.8 
z
" style="fill:#ffffff;"/>
   </g>
   <g id="matplotlib.axis_3"/>
   <g id="matplotlib.axis_4">
    <g id="ytick_3">
     <g id="line2d_4">
      <g>
       <use style="fill:#262626;stroke:#262626;stroke-width:1.875;" x="171.84" xlink:href="#m496822938f" y="107.396088"/>
      </g>
     </g>
    </g>
    <g id="ytick_4">
     <g id="line2d_5">
      <g>
       <use style="fill:#262626;stroke:#262626;stroke-width:1.875;" x="171.84" xlink:href="#m496822938f" y="65.868558"/>
      </g>
     </g>
    </g>
   </g>
   <g id="line2d_6">
    <g clip-path="url(#p6b52bf003b)">
     <use style="fill:#4c72b0;stroke:#4c72b0;" x="216.45688" xlink:href="#mf77c02cab5" y="112.308754"/>
     <use style="fill:#4c72b0;stroke:#4c72b0;" x="190.562829" xlink:href="#mf77c02cab5" y="109.036122"/>
     <use style="fill:#4c72b0;stroke:#4c72b0;" x="215.278156" xlink:href="#mf77c02cab5" y="93.246513"/>
     <use style="fill:#4c72b0;stroke:#4c72b0;" x="224.47957" xlink:href="#mf77c02cab5" y="77.457171"/>
     <use style="fill:#4c72b0;stroke:#4c72b0;" x="267.756205" xlink:href="#mf77c02cab5" y="58.515881"/>
     <use style="fill:#4c72b0;stroke:#4c72b0;" x="226.294881" xlink:href="#mf77c02cab5" y="100.178014"/>
     <use style="fill:#4c72b0;stroke:#4c72b0;" x="203.145672" xlink:href="#mf77c02cab5" y="101.647663"/>
     <use style="fill:#4c72b0;stroke:#4c72b0;" x="227.920229" xlink:href="#mf77c02cab5" y="100.792572"/>
     <use style="fill:#4c72b0;stroke:#4c72b0;" x="229.423916" xlink:href="#mf77c02cab5" y="107.396088"/>
     <use style="fill:#4c72b0;stroke:#4c72b0;" x="233.105763" xlink:href="#mf77c02cab5" y="101.88982"/>
     <use style="fill:#4c72b0;stroke:#4c72b0;" x="241.777311" xlink:href="#mf77c02cab5" y="85.539788"/>
     <use style="fill:#4c72b0;stroke:#4c72b0;" x="213.220057" xlink:href="#mf77c02cab5" y="100.32664"/>
     <use style="fill:#4c72b0;stroke:#4c72b0;" x="190.050572" xlink:href="#mf77c02cab5" y="125.109091"/>
     <use style="fill:#4c72b0;stroke:#4c72b0;" x="181.246157" xlink:href="#mf77c02cab5" y="123.684124"/>
     <use style="fill:#4c72b0;stroke:#4c72b0;" x="240.169038" xlink:href="#mf77c02cab5" y="106.209728"/>
     <use style="fill:#4c72b0;stroke:#4c72b0;" x="250.98246" xlink:href="#mf77c02cab5" y="82.994642"/>
     <use style="fill:#4c72b0;stroke:#4c72b0;" x="261.474122" xlink:href="#mf77c02cab5" y="74.404356"/>
     <use style="fill:#4c72b0;stroke:#4c72b0;" x="282.297897" xlink:href="#mf77c02cab5" y="70.392553"/>
     <use style="fill:#4c72b0;stroke:#4c72b0;" x="244.353536" xlink:href="#mf77c02cab5" y="108.962101"/>
     <use style="fill:#4c72b0;stroke:#4c72b0;" x="177.271364" xlink:href="#mf77c02cab5" y="95.840871"/>
     <use style="fill:#4c72b0;stroke:#4c72b0;" x="245.662459" xlink:href="#mf77c02cab5" y="78.845314"/>
     <use style="fill:#4c72b0;stroke:#4c72b0;" x="266.051884" xlink:href="#mf77c02cab5" y="64.611869"/>
     <use style="fill:#4c72b0;stroke:#4c72b0;" x="285.898636" xlink:href="#mf77c02cab5" y="35.290909"/>
     <use style="fill:#4c72b0;stroke:#4c72b0;" x="284.132951" xlink:href="#mf77c02cab5" y="84.933191"/>
    </g>
   </g>
   <g id="patch_6">
    <path d="M 171.84 129.6 
L 171.84 30.8 
" style="fill:none;stroke:#262626;stroke-linecap:square;stroke-linejoin:miter;stroke-width:1.875;"/>
   </g>
   <g id="patch_7">
    <path d="M 171.84 129.6 
L 291.33 129.6 
" style="fill:none;stroke:#262626;stroke-linecap:square;stroke-linejoin:miter;stroke-width:1.875;"/>
   </g>
   <g id="text_5">
    <!-- atpG -->
    <defs>
     <path d="M 41.21875 28.078125 
L 41.21875 36.46875 
L 71.53125 36.53125 
L 71.53125 9.96875 
Q 64.546875 4.390625 57.125 1.578125 
Q 49.703125 -1.21875 41.890625 -1.21875 
Q 31.34375 -1.21875 22.71875 3.296875 
Q 14.109375 7.8125 9.71875 16.359375 
Q 5.328125 24.90625 5.328125 35.453125 
Q 5.328125 45.90625 9.6875 54.953125 
Q 14.0625 64.015625 22.265625 68.40625 
Q 30.46875 72.796875 41.15625 72.796875 
Q 48.921875 72.796875 55.1875 70.28125 
Q 61.46875 67.78125 65.03125 63.28125 
Q 68.609375 58.796875 70.453125 51.5625 
L 61.921875 49.21875 
Q 60.296875 54.6875 57.90625 57.8125 
Q 55.515625 60.9375 51.0625 62.8125 
Q 46.625 64.703125 41.21875 64.703125 
Q 34.71875 64.703125 29.984375 62.71875 
Q 25.25 60.75 22.34375 57.515625 
Q 19.4375 54.296875 17.828125 50.4375 
Q 15.09375 43.796875 15.09375 36.03125 
Q 15.09375 26.46875 18.390625 20.015625 
Q 21.6875 13.578125 27.984375 10.453125 
Q 34.28125 7.328125 41.359375 7.328125 
Q 47.515625 7.328125 53.375 9.6875 
Q 59.234375 12.0625 62.25 14.75 
L 62.25 28.078125 
z
" id="ArialMT-71"/>
    </defs>
    <g style="fill:#262626;" transform="translate(212.074687 24.8)scale(0.18 -0.18)">
     <use xlink:href="#ArialMT-97"/>
     <use x="55.615234" xlink:href="#ArialMT-116"/>
     <use x="83.398438" xlink:href="#ArialMT-112"/>
     <use x="139.013672" xlink:href="#ArialMT-71"/>
    </g>
   </g>
  </g>
  <g id="axes_3">
   <g id="patch_8">
    <path d="M 311.13 129.6 
L 430.62 129.6 
L 430.62 30.8 
L 311.13 30.8 
z
" style="fill:#ffffff;"/>
   </g>
   <g id="matplotlib.axis_5"/>
   <g id="matplotlib.axis_6">
    <g id="ytick_5">
     <g id="line2d_7">
      <g>
       <use style="fill:#262626;stroke:#262626;stroke-width:1.875;" x="311.13" xlink:href="#m496822938f" y="107.396088"/>
      </g>
     </g>
    </g>
    <g id="ytick_6">
     <g id="line2d_8">
      <g>
       <use style="fill:#262626;stroke:#262626;stroke-width:1.875;" x="311.13" xlink:href="#m496822938f" y="65.868558"/>
      </g>
     </g>
    </g>
   </g>
   <g id="line2d_9">
    <g clip-path="url(#pc16e50d75a)">
     <use style="fill:#4c72b0;stroke:#4c72b0;" x="346.98262" xlink:href="#mf77c02cab5" y="112.308754"/>
     <use style="fill:#4c72b0;stroke:#4c72b0;" x="351.357128" xlink:href="#mf77c02cab5" y="109.036122"/>
     <use style="fill:#4c72b0;stroke:#4c72b0;" x="369.720835" xlink:href="#mf77c02cab5" y="93.246513"/>
     <use style="fill:#4c72b0;stroke:#4c72b0;" x="365.2118" xlink:href="#mf77c02cab5" y="77.457171"/>
     <use style="fill:#4c72b0;stroke:#4c72b0;" x="425.188636" xlink:href="#mf77c02cab5" y="58.515881"/>
     <use style="fill:#4c72b0;stroke:#4c72b0;" x="375.611025" xlink:href="#mf77c02cab5" y="100.178014"/>
     <use style="fill:#4c72b0;stroke:#4c72b0;" x="350.089149" xlink:href="#mf77c02cab5" y="101.647663"/>
     <use style="fill:#4c72b0;stroke:#4c72b0;" x="345.841481" xlink:href="#mf77c02cab5" y="100.792572"/>
     <use style="fill:#4c72b0;stroke:#4c72b0;" x="339.850076" xlink:href="#mf77c02cab5" y="107.396088"/>
     <use style="fill:#4c72b0;stroke:#4c72b0;" x="368.874804" xlink:href="#mf77c02cab5" y="101.88982"/>
     <use style="fill:#4c72b0;stroke:#4c72b0;" x="382.451879" xlink:href="#mf77c02cab5" y="85.539788"/>
     <use style="fill:#4c72b0;stroke:#4c72b0;" x="347.937555" xlink:href="#mf77c02cab5" y="100.32664"/>
     <use style="fill:#4c72b0;stroke:#4c72b0;" x="316.561364" xlink:href="#mf77c02cab5" y="125.109091"/>
     <use style="fill:#4c72b0;stroke:#4c72b0;" x="357.060687" xlink:href="#mf77c02cab5" y="123.684124"/>
     <use style="fill:#4c72b0;stroke:#4c72b0;" x="378.150827" xlink:href="#mf77c02cab5" y="106.209728"/>
     <use style="fill:#4c72b0;stroke:#4c72b0;" x="413.882308" xlink:href="#mf77c02cab5" y="82.994642"/>
     <use style="fill:#4c72b0;stroke:#4c72b0;" x="416.285875" xlink:href="#mf77c02cab5" y="74.404356"/>
     <use style="fill:#4c72b0;stroke:#4c72b0;" x="399.700072" xlink:href="#mf77c02cab5" y="70.392553"/>
     <use style="fill:#4c72b0;stroke:#4c72b0;" x="336.071762" xlink:href="#mf77c02cab5" y="108.962101"/>
     <use style="fill:#4c72b0;stroke:#4c72b0;" x="363.698253" xlink:href="#mf77c02cab5" y="95.840871"/>
     <use style="fill:#4c72b0;stroke:#4c72b0;" x="368.14878" xlink:href="#mf77c02cab5" y="78.845314"/>
     <use style="fill:#4c72b0;stroke:#4c72b0;" x="390.853684" xlink:href="#mf77c02cab5" y="64.611869"/>
     <use style="fill:#4c72b0;stroke:#4c72b0;" x="398.360771" xlink:href="#mf77c02cab5" y="35.290909"/>
     <use style="fill:#4c72b0;stroke:#4c72b0;" x="409.190913" xlink:href="#mf77c02cab5" y="84.933191"/>
    </g>
   </g>
   <g id="patch_9">
    <path d="M 311.13 129.6 
L 311.13 30.8 
" style="fill:none;stroke:#262626;stroke-linecap:square;stroke-linejoin:miter;stroke-width:1.875;"/>
   </g>
   <g id="patch_10">
    <path d="M 311.13 129.6 
L 430.62 129.6 
" style="fill:none;stroke:#262626;stroke-linecap:square;stroke-linejoin:miter;stroke-width:1.875;"/>
   </g>
   <g id="text_6">
    <!-- hemE -->
    <defs>
     <path d="M 6.59375 0 
L 6.59375 71.578125 
L 15.375 71.578125 
L 15.375 45.90625 
Q 21.53125 53.03125 30.90625 53.03125 
Q 36.671875 53.03125 40.921875 50.75 
Q 45.171875 48.484375 47 44.484375 
Q 48.828125 40.484375 48.828125 32.859375 
L 48.828125 0 
L 40.046875 0 
L 40.046875 32.859375 
Q 40.046875 39.453125 37.1875 42.453125 
Q 34.328125 45.453125 29.109375 45.453125 
Q 25.203125 45.453125 21.75 43.421875 
Q 18.3125 41.40625 16.84375 37.9375 
Q 15.375 34.46875 15.375 28.375 
L 15.375 0 
z
" id="ArialMT-104"/>
     <path d="M 6.59375 0 
L 6.59375 51.859375 
L 14.453125 51.859375 
L 14.453125 44.578125 
Q 16.890625 48.390625 20.9375 50.703125 
Q 25 53.03125 30.171875 53.03125 
Q 35.9375 53.03125 39.625 50.640625 
Q 43.3125 48.25 44.828125 43.953125 
Q 50.984375 53.03125 60.84375 53.03125 
Q 68.5625 53.03125 72.703125 48.75 
Q 76.859375 44.484375 76.859375 35.59375 
L 76.859375 0 
L 68.109375 0 
L 68.109375 32.671875 
Q 68.109375 37.9375 67.25 40.25 
Q 66.40625 42.578125 64.15625 43.984375 
Q 61.921875 45.40625 58.890625 45.40625 
Q 53.421875 45.40625 49.796875 41.765625 
Q 46.1875 38.140625 46.1875 30.125 
L 46.1875 0 
L 37.40625 0 
L 37.40625 33.6875 
Q 37.40625 39.546875 35.25 42.46875 
Q 33.109375 45.40625 28.21875 45.40625 
Q 24.515625 45.40625 21.359375 43.453125 
Q 18.21875 41.5 16.796875 37.734375 
Q 15.375 33.984375 15.375 26.90625 
L 15.375 0 
z
" id="ArialMT-109"/>
     <path d="M 7.90625 0 
L 7.90625 71.578125 
L 59.671875 71.578125 
L 59.671875 63.140625 
L 17.390625 63.140625 
L 17.390625 41.21875 
L 56.984375 41.21875 
L 56.984375 32.8125 
L 17.390625 32.8125 
L 17.390625 8.453125 
L 61.328125 8.453125 
L 61.328125 0 
z
" id="ArialMT-69"/>
    </defs>
    <g style="fill:#262626;" transform="translate(347.365313 24.8)scale(0.18 -0.18)">
     <use xlink:href="#ArialMT-104"/>
     <use x="55.615234" xlink:href="#ArialMT-101"/>
     <use x="111.230469" xlink:href="#ArialMT-109"/>
     <use x="194.53125" xlink:href="#ArialMT-69"/>
    </g>
   </g>
  </g>
  <g id="axes_4">
   <g id="patch_11">
    <path d="M 450.42 129.6 
L 569.91 129.6 
L 569.91 30.8 
L 450.42 30.8 
z
" style="fill:#ffffff;"/>
   </g>
   <g id="matplotlib.axis_7"/>
   <g id="matplotlib.axis_8">
    <g id="ytick_7">
     <g id="line2d_10">
      <g>
       <use style="fill:#262626;stroke:#262626;stroke-width:1.875;" x="450.42" xlink:href="#m496822938f" y="107.396088"/>
      </g>
     </g>
    </g>
    <g id="ytick_8">
     <g id="line2d_11">
      <g>
       <use style="fill:#262626;stroke:#262626;stroke-width:1.875;" x="450.42" xlink:href="#m496822938f" y="65.868558"/>
      </g>
     </g>
    </g>
   </g>
   <g id="line2d_12">
    <g clip-path="url(#p9f45049173)">
     <use style="fill:#4c72b0;stroke:#4c72b0;" x="484.483303" xlink:href="#mf77c02cab5" y="112.308754"/>
     <use style="fill:#4c72b0;stroke:#4c72b0;" x="482.445238" xlink:href="#mf77c02cab5" y="109.036122"/>
     <use style="fill:#4c72b0;stroke:#4c72b0;" x="491.704619" xlink:href="#mf77c02cab5" y="93.246513"/>
     <use style="fill:#4c72b0;stroke:#4c72b0;" x="509.668254" xlink:href="#mf77c02cab5" y="77.457171"/>
     <use style="fill:#4c72b0;stroke:#4c72b0;" x="546.890818" xlink:href="#mf77c02cab5" y="58.515881"/>
     <use style="fill:#4c72b0;stroke:#4c72b0;" x="492.45104" xlink:href="#mf77c02cab5" y="100.178014"/>
     <use style="fill:#4c72b0;stroke:#4c72b0;" x="480.133521" xlink:href="#mf77c02cab5" y="101.647663"/>
     <use style="fill:#4c72b0;stroke:#4c72b0;" x="499.551427" xlink:href="#mf77c02cab5" y="100.792572"/>
     <use style="fill:#4c72b0;stroke:#4c72b0;" x="494.875868" xlink:href="#mf77c02cab5" y="107.396088"/>
     <use style="fill:#4c72b0;stroke:#4c72b0;" x="510.009148" xlink:href="#mf77c02cab5" y="101.88982"/>
     <use style="fill:#4c72b0;stroke:#4c72b0;" x="524.830724" xlink:href="#mf77c02cab5" y="85.539788"/>
     <use style="fill:#4c72b0;stroke:#4c72b0;" x="502.409409" xlink:href="#mf77c02cab5" y="100.32664"/>
     <use style="fill:#4c72b0;stroke:#4c72b0;" x="467.937972" xlink:href="#mf77c02cab5" y="125.109091"/>
     <use style="fill:#4c72b0;stroke:#4c72b0;" x="455.851364" xlink:href="#mf77c02cab5" y="123.684124"/>
     <use style="fill:#4c72b0;stroke:#4c72b0;" x="499.905873" xlink:href="#mf77c02cab5" y="106.209728"/>
     <use style="fill:#4c72b0;stroke:#4c72b0;" x="539.176405" xlink:href="#mf77c02cab5" y="82.994642"/>
     <use style="fill:#4c72b0;stroke:#4c72b0;" x="525.547956" xlink:href="#mf77c02cab5" y="74.404356"/>
     <use style="fill:#4c72b0;stroke:#4c72b0;" x="564.478636" xlink:href="#mf77c02cab5" y="70.392553"/>
     <use style="fill:#4c72b0;stroke:#4c72b0;" x="463.630932" xlink:href="#mf77c02cab5" y="108.962101"/>
     <use style="fill:#4c72b0;stroke:#4c72b0;" x="494.014251" xlink:href="#mf77c02cab5" y="95.840871"/>
     <use style="fill:#4c72b0;stroke:#4c72b0;" x="512.39801" xlink:href="#mf77c02cab5" y="78.845314"/>
     <use style="fill:#4c72b0;stroke:#4c72b0;" x="531.910783" xlink:href="#mf77c02cab5" y="64.611869"/>
     <use style="fill:#4c72b0;stroke:#4c72b0;" x="518.031616" xlink:href="#mf77c02cab5" y="35.290909"/>
     <use style="fill:#4c72b0;stroke:#4c72b0;" x="552.524424" xlink:href="#mf77c02cab5" y="84.933191"/>
    </g>
   </g>
   <g id="patch_12">
    <path d="M 450.42 129.6 
L 450.42 30.8 
" style="fill:none;stroke:#262626;stroke-linecap:square;stroke-linejoin:miter;stroke-width:1.875;"/>
   </g>
   <g id="patch_13">
    <path d="M 450.42 129.6 
L 569.91 129.6 
" style="fill:none;stroke:#262626;stroke-linecap:square;stroke-linejoin:miter;stroke-width:1.875;"/>
   </g>
   <g id="text_7">
    <!-- atpA -->
    <defs>
     <path d="M -0.140625 0 
L 27.34375 71.578125 
L 37.546875 71.578125 
L 66.84375 0 
L 56.0625 0 
L 47.703125 21.6875 
L 17.78125 21.6875 
L 9.90625 0 
z
M 20.515625 29.390625 
L 44.78125 29.390625 
L 37.3125 49.21875 
Q 33.890625 58.25 32.234375 64.0625 
Q 30.859375 57.171875 28.375 50.390625 
z
" id="ArialMT-65"/>
    </defs>
    <g style="fill:#262626;" transform="translate(491.651719 24.8)scale(0.18 -0.18)">
     <use xlink:href="#ArialMT-97"/>
     <use x="55.615234" xlink:href="#ArialMT-116"/>
     <use x="83.398438" xlink:href="#ArialMT-112"/>
     <use x="139.013672" xlink:href="#ArialMT-65"/>
    </g>
   </g>
  </g>
  <g id="axes_5">
   <g id="patch_14">
    <path d="M 589.71 129.6 
L 709.2 129.6 
L 709.2 30.8 
L 589.71 30.8 
z
" style="fill:#ffffff;"/>
   </g>
   <g id="matplotlib.axis_9"/>
   <g id="matplotlib.axis_10">
    <g id="ytick_9">
     <g id="line2d_13">
      <g>
       <use style="fill:#262626;stroke:#262626;stroke-width:1.875;" x="589.71" xlink:href="#m496822938f" y="107.396088"/>
      </g>
     </g>
    </g>
    <g id="ytick_10">
     <g id="line2d_14">
      <g>
       <use style="fill:#262626;stroke:#262626;stroke-width:1.875;" x="589.71" xlink:href="#m496822938f" y="65.868558"/>
      </g>
     </g>
    </g>
   </g>
   <g id="line2d_15">
    <g clip-path="url(#p74e4358d2e)">
     <use style="fill:#4c72b0;stroke:#4c72b0;" x="650.916891" xlink:href="#mf77c02cab5" y="112.308754"/>
     <use style="fill:#4c72b0;stroke:#4c72b0;" x="631.930895" xlink:href="#mf77c02cab5" y="109.036122"/>
     <use style="fill:#4c72b0;stroke:#4c72b0;" x="654.513768" xlink:href="#mf77c02cab5" y="93.246513"/>
     <use style="fill:#4c72b0;stroke:#4c72b0;" x="683.315264" xlink:href="#mf77c02cab5" y="77.457171"/>
     <use style="fill:#4c72b0;stroke:#4c72b0;" x="699.98904" xlink:href="#mf77c02cab5" y="58.515881"/>
     <use style="fill:#4c72b0;stroke:#4c72b0;" x="663.497532" xlink:href="#mf77c02cab5" y="100.178014"/>
     <use style="fill:#4c72b0;stroke:#4c72b0;" x="657.934078" xlink:href="#mf77c02cab5" y="101.647663"/>
     <use style="fill:#4c72b0;stroke:#4c72b0;" x="659.384332" xlink:href="#mf77c02cab5" y="100.792572"/>
     <use style="fill:#4c72b0;stroke:#4c72b0;" x="667.220948" xlink:href="#mf77c02cab5" y="107.396088"/>
     <use style="fill:#4c72b0;stroke:#4c72b0;" x="689.643305" xlink:href="#mf77c02cab5" y="101.88982"/>
     <use style="fill:#4c72b0;stroke:#4c72b0;" x="682.186308" xlink:href="#mf77c02cab5" y="85.539788"/>
     <use style="fill:#4c72b0;stroke:#4c72b0;" x="674.696137" xlink:href="#mf77c02cab5" y="100.32664"/>
     <use style="fill:#4c72b0;stroke:#4c72b0;" x="595.141364" xlink:href="#mf77c02cab5" y="125.109091"/>
     <use style="fill:#4c72b0;stroke:#4c72b0;" x="644.966596" xlink:href="#mf77c02cab5" y="123.684124"/>
     <use style="fill:#4c72b0;stroke:#4c72b0;" x="623.840933" xlink:href="#mf77c02cab5" y="106.209728"/>
     <use style="fill:#4c72b0;stroke:#4c72b0;" x="671.148218" xlink:href="#mf77c02cab5" y="82.994642"/>
     <use style="fill:#4c72b0;stroke:#4c72b0;" x="656.807797" xlink:href="#mf77c02cab5" y="74.404356"/>
     <use style="fill:#4c72b0;stroke:#4c72b0;" x="677.717299" xlink:href="#mf77c02cab5" y="70.392553"/>
     <use style="fill:#4c72b0;stroke:#4c72b0;" x="638.701423" xlink:href="#mf77c02cab5" y="108.962101"/>
     <use style="fill:#4c72b0;stroke:#4c72b0;" x="662.25354" xlink:href="#mf77c02cab5" y="95.840871"/>
     <use style="fill:#4c72b0;stroke:#4c72b0;" x="687.657198" xlink:href="#mf77c02cab5" y="78.845314"/>
     <use style="fill:#4c72b0;stroke:#4c72b0;" x="703.768636" xlink:href="#mf77c02cab5" y="64.611869"/>
     <use style="fill:#4c72b0;stroke:#4c72b0;" x="693.005295" xlink:href="#mf77c02cab5" y="35.290909"/>
     <use style="fill:#4c72b0;stroke:#4c72b0;" x="700.099261" xlink:href="#mf77c02cab5" y="84.933191"/>
    </g>
   </g>
   <g id="patch_15">
    <path d="M 589.71 129.6 
L 589.71 30.8 
" style="fill:none;stroke:#262626;stroke-linecap:square;stroke-linejoin:miter;stroke-width:1.875;"/>
   </g>
   <g id="patch_16">
    <path d="M 589.71 129.6 
L 709.2 129.6 
" style="fill:none;stroke:#262626;stroke-linecap:square;stroke-linejoin:miter;stroke-width:1.875;"/>
   </g>
   <g id="text_8">
    <!-- spuC-II -->
    <defs>
     <path d="M 3.078125 15.484375 
L 11.765625 16.84375 
Q 12.5 11.625 15.84375 8.84375 
Q 19.1875 6.0625 25.203125 6.0625 
Q 31.25 6.0625 34.171875 8.515625 
Q 37.109375 10.984375 37.109375 14.3125 
Q 37.109375 17.28125 34.515625 19 
Q 32.71875 20.171875 25.53125 21.96875 
Q 15.875 24.421875 12.140625 26.203125 
Q 8.40625 27.984375 6.46875 31.125 
Q 4.546875 34.28125 4.546875 38.09375 
Q 4.546875 41.546875 6.125 44.5 
Q 7.71875 47.46875 10.453125 49.421875 
Q 12.5 50.921875 16.03125 51.96875 
Q 19.578125 53.03125 23.640625 53.03125 
Q 29.734375 53.03125 34.34375 51.265625 
Q 38.96875 49.515625 41.15625 46.5 
Q 43.359375 43.5 44.1875 38.484375 
L 35.59375 37.3125 
Q 35.015625 41.3125 32.203125 43.546875 
Q 29.390625 45.796875 24.265625 45.796875 
Q 18.21875 45.796875 15.625 43.796875 
Q 13.03125 41.796875 13.03125 39.109375 
Q 13.03125 37.40625 14.109375 36.03125 
Q 15.1875 34.625 17.484375 33.6875 
Q 18.796875 33.203125 25.25 31.453125 
Q 34.578125 28.953125 38.25 27.359375 
Q 41.9375 25.78125 44.03125 22.75 
Q 46.140625 19.734375 46.140625 15.234375 
Q 46.140625 10.84375 43.578125 6.953125 
Q 41.015625 3.078125 36.171875 0.953125 
Q 31.34375 -1.171875 25.25 -1.171875 
Q 15.140625 -1.171875 9.84375 3.03125 
Q 4.546875 7.234375 3.078125 15.484375 
z
" id="ArialMT-115"/>
     <path d="M 58.796875 25.09375 
L 68.265625 22.703125 
Q 65.28125 11.03125 57.546875 4.90625 
Q 49.8125 -1.21875 38.625 -1.21875 
Q 27.046875 -1.21875 19.796875 3.484375 
Q 12.546875 8.203125 8.765625 17.140625 
Q 4.984375 26.078125 4.984375 36.328125 
Q 4.984375 47.515625 9.25 55.828125 
Q 13.53125 64.15625 21.40625 68.46875 
Q 29.296875 72.796875 38.765625 72.796875 
Q 49.515625 72.796875 56.828125 67.328125 
Q 64.15625 61.859375 67.046875 51.953125 
L 57.71875 49.75 
Q 55.21875 57.5625 50.484375 61.125 
Q 45.75 64.703125 38.578125 64.703125 
Q 30.328125 64.703125 24.78125 60.734375 
Q 19.234375 56.78125 16.984375 50.109375 
Q 14.75 43.453125 14.75 36.375 
Q 14.75 27.25 17.40625 20.4375 
Q 20.0625 13.625 25.671875 10.25 
Q 31.296875 6.890625 37.84375 6.890625 
Q 45.796875 6.890625 51.3125 11.46875 
Q 56.84375 16.0625 58.796875 25.09375 
z
" id="ArialMT-67"/>
     <path d="M 3.171875 21.484375 
L 3.171875 30.328125 
L 30.171875 30.328125 
L 30.171875 21.484375 
z
" id="ArialMT-45"/>
     <path d="M 9.328125 0 
L 9.328125 71.578125 
L 18.796875 71.578125 
L 18.796875 0 
z
" id="ArialMT-73"/>
    </defs>
    <g style="fill:#262626;" transform="translate(620.448281 24.8)scale(0.18 -0.18)">
     <use xlink:href="#ArialMT-115"/>
     <use x="50" xlink:href="#ArialMT-112"/>
     <use x="105.615234" xlink:href="#ArialMT-117"/>
     <use x="161.230469" xlink:href="#ArialMT-67"/>
     <use x="233.447266" xlink:href="#ArialMT-45"/>
     <use x="266.748047" xlink:href="#ArialMT-73"/>
     <use x="294.53125" xlink:href="#ArialMT-73"/>
    </g>
   </g>
  </g>
  <g id="axes_6">
   <g id="patch_17">
    <path d="M 32.55 268.2 
L 152.04 268.2 
L 152.04 169.4 
L 32.55 169.4 
z
" style="fill:#ffffff;"/>
   </g>
   <g id="matplotlib.axis_11"/>
   <g id="matplotlib.axis_12">
    <g id="ytick_11">
     <g id="line2d_16">
      <g>
       <use style="fill:#262626;stroke:#262626;stroke-width:1.875;" x="32.55" xlink:href="#m496822938f" y="245.996088"/>
      </g>
     </g>
     <g id="text_9">
      <!-- 1 -->
      <g style="fill:#262626;" transform="translate(10.874453 251.901283)scale(0.165 -0.165)">
       <use xlink:href="#ArialMT-49"/>
      </g>
     </g>
    </g>
    <g id="ytick_12">
     <g id="line2d_17">
      <g>
       <use style="fill:#262626;stroke:#262626;stroke-width:1.875;" x="32.55" xlink:href="#m496822938f" y="204.468558"/>
      </g>
     </g>
     <g id="text_10">
      <!-- 2 -->
      <g style="fill:#262626;" transform="translate(10.874453 210.373753)scale(0.165 -0.165)">
       <use xlink:href="#ArialMT-50"/>
      </g>
     </g>
    </g>
   </g>
   <g id="line2d_18">
    <g clip-path="url(#p11a3e91d8c)">
     <use style="fill:#4c72b0;stroke:#4c72b0;" x="117.046977" xlink:href="#mf77c02cab5" y="250.908754"/>
     <use style="fill:#4c72b0;stroke:#4c72b0;" x="99.738705" xlink:href="#mf77c02cab5" y="247.636122"/>
     <use style="fill:#4c72b0;stroke:#4c72b0;" x="101.807637" xlink:href="#mf77c02cab5" y="231.846513"/>
     <use style="fill:#4c72b0;stroke:#4c72b0;" x="48.644291" xlink:href="#mf77c02cab5" y="216.057171"/>
     <use style="fill:#4c72b0;stroke:#4c72b0;" x="63.317214" xlink:href="#mf77c02cab5" y="197.115881"/>
     <use style="fill:#4c72b0;stroke:#4c72b0;" x="74.883904" xlink:href="#mf77c02cab5" y="238.778014"/>
     <use style="fill:#4c72b0;stroke:#4c72b0;" x="114.473131" xlink:href="#mf77c02cab5" y="240.247663"/>
     <use style="fill:#4c72b0;stroke:#4c72b0;" x="86.855262" xlink:href="#mf77c02cab5" y="239.392572"/>
     <use style="fill:#4c72b0;stroke:#4c72b0;" x="89.331586" xlink:href="#mf77c02cab5" y="245.996088"/>
     <use style="fill:#4c72b0;stroke:#4c72b0;" x="63.27685" xlink:href="#mf77c02cab5" y="240.48982"/>
     <use style="fill:#4c72b0;stroke:#4c72b0;" x="69.658211" xlink:href="#mf77c02cab5" y="224.139788"/>
     <use style="fill:#4c72b0;stroke:#4c72b0;" x="80.534078" xlink:href="#mf77c02cab5" y="238.92664"/>
     <use style="fill:#4c72b0;stroke:#4c72b0;" x="146.608636" xlink:href="#mf77c02cab5" y="263.709091"/>
     <use style="fill:#4c72b0;stroke:#4c72b0;" x="131.315674" xlink:href="#mf77c02cab5" y="262.284124"/>
     <use style="fill:#4c72b0;stroke:#4c72b0;" x="109.066317" xlink:href="#mf77c02cab5" y="244.809728"/>
     <use style="fill:#4c72b0;stroke:#4c72b0;" x="43.620416" xlink:href="#mf77c02cab5" y="221.594642"/>
     <use style="fill:#4c72b0;stroke:#4c72b0;" x="37.981364" xlink:href="#mf77c02cab5" y="213.004356"/>
     <use style="fill:#4c72b0;stroke:#4c72b0;" x="43.158075" xlink:href="#mf77c02cab5" y="208.992553"/>
     <use style="fill:#4c72b0;stroke:#4c72b0;" x="100.921183" xlink:href="#mf77c02cab5" y="247.562101"/>
     <use style="fill:#4c72b0;stroke:#4c72b0;" x="104.144383" xlink:href="#mf77c02cab5" y="234.440871"/>
     <use style="fill:#4c72b0;stroke:#4c72b0;" x="84.215715" xlink:href="#mf77c02cab5" y="217.445314"/>
     <use style="fill:#4c72b0;stroke:#4c72b0;" x="57.279276" xlink:href="#mf77c02cab5" y="203.211869"/>
     <use style="fill:#4c72b0;stroke:#4c72b0;" x="48.362482" xlink:href="#mf77c02cab5" y="173.890909"/>
     <use style="fill:#4c72b0;stroke:#4c72b0;" x="40.806009" xlink:href="#mf77c02cab5" y="223.533191"/>
    </g>
   </g>
   <g id="patch_18">
    <path d="M 32.55 268.2 
L 32.55 169.4 
" style="fill:none;stroke:#262626;stroke-linecap:square;stroke-linejoin:miter;stroke-width:1.875;"/>
   </g>
   <g id="patch_19">
    <path d="M 32.55 268.2 
L 152.04 268.2 
" style="fill:none;stroke:#262626;stroke-linecap:square;stroke-linejoin:miter;stroke-width:1.875;"/>
   </g>
   <g id="text_11">
    <!-- ureG -->
    <defs>
     <path d="M 6.5 0 
L 6.5 51.859375 
L 14.40625 51.859375 
L 14.40625 44 
Q 17.4375 49.515625 20 51.265625 
Q 22.5625 53.03125 25.640625 53.03125 
Q 30.078125 53.03125 34.671875 50.203125 
L 31.640625 42.046875 
Q 28.421875 43.953125 25.203125 43.953125 
Q 22.3125 43.953125 20.015625 42.21875 
Q 17.71875 40.484375 16.75 37.40625 
Q 15.28125 32.71875 15.28125 27.15625 
L 15.28125 0 
z
" id="ArialMT-114"/>
    </defs>
    <g style="fill:#262626;" transform="translate(72.288281 163.4)scale(0.18 -0.18)">
     <use xlink:href="#ArialMT-117"/>
     <use x="55.615234" xlink:href="#ArialMT-114"/>
     <use x="88.916016" xlink:href="#ArialMT-101"/>
     <use x="144.53125" xlink:href="#ArialMT-71"/>
    </g>
   </g>
  </g>
  <g id="axes_7">
   <g id="patch_20">
    <path d="M 171.84 268.2 
L 291.33 268.2 
L 291.33 169.4 
L 171.84 169.4 
z
" style="fill:#ffffff;"/>
   </g>
   <g id="matplotlib.axis_13"/>
   <g id="matplotlib.axis_14">
    <g id="ytick_13">
     <g id="line2d_19">
      <g>
       <use style="fill:#262626;stroke:#262626;stroke-width:1.875;" x="171.84" xlink:href="#m496822938f" y="245.996088"/>
      </g>
     </g>
    </g>
    <g id="ytick_14">
     <g id="line2d_20">
      <g>
       <use style="fill:#262626;stroke:#262626;stroke-width:1.875;" x="171.84" xlink:href="#m496822938f" y="204.468558"/>
      </g>
     </g>
    </g>
   </g>
   <g id="line2d_21">
    <g clip-path="url(#p0df5793c5a)">
     <use style="fill:#4c72b0;stroke:#4c72b0;" x="275.094812" xlink:href="#mf77c02cab5" y="250.908754"/>
     <use style="fill:#4c72b0;stroke:#4c72b0;" x="271.497161" xlink:href="#mf77c02cab5" y="247.636122"/>
     <use style="fill:#4c72b0;stroke:#4c72b0;" x="246.052256" xlink:href="#mf77c02cab5" y="231.846513"/>
     <use style="fill:#4c72b0;stroke:#4c72b0;" x="224.492751" xlink:href="#mf77c02cab5" y="216.057171"/>
     <use style="fill:#4c72b0;stroke:#4c72b0;" x="177.590396" xlink:href="#mf77c02cab5" y="197.115881"/>
     <use style="fill:#4c72b0;stroke:#4c72b0;" x="256.522627" xlink:href="#mf77c02cab5" y="238.778014"/>
     <use style="fill:#4c72b0;stroke:#4c72b0;" x="249.029813" xlink:href="#mf77c02cab5" y="240.247663"/>
     <use style="fill:#4c72b0;stroke:#4c72b0;" x="240.857005" xlink:href="#mf77c02cab5" y="239.392572"/>
     <use style="fill:#4c72b0;stroke:#4c72b0;" x="253.304797" xlink:href="#mf77c02cab5" y="245.996088"/>
     <use style="fill:#4c72b0;stroke:#4c72b0;" x="218.672304" xlink:href="#mf77c02cab5" y="240.48982"/>
     <use style="fill:#4c72b0;stroke:#4c72b0;" x="232.450579" xlink:href="#mf77c02cab5" y="224.139788"/>
     <use style="fill:#4c72b0;stroke:#4c72b0;" x="252.648541" xlink:href="#mf77c02cab5" y="238.92664"/>
     <use style="fill:#4c72b0;stroke:#4c72b0;" x="285.898636" xlink:href="#mf77c02cab5" y="263.709091"/>
     <use style="fill:#4c72b0;stroke:#4c72b0;" x="238.643748" xlink:href="#mf77c02cab5" y="262.284124"/>
     <use style="fill:#4c72b0;stroke:#4c72b0;" x="233.872246" xlink:href="#mf77c02cab5" y="244.809728"/>
     <use style="fill:#4c72b0;stroke:#4c72b0;" x="200.720434" xlink:href="#mf77c02cab5" y="221.594642"/>
     <use style="fill:#4c72b0;stroke:#4c72b0;" x="191.127068" xlink:href="#mf77c02cab5" y="213.004356"/>
     <use style="fill:#4c72b0;stroke:#4c72b0;" x="201.779806" xlink:href="#mf77c02cab5" y="208.992553"/>
     <use style="fill:#4c72b0;stroke:#4c72b0;" x="246.397911" xlink:href="#mf77c02cab5" y="247.562101"/>
     <use style="fill:#4c72b0;stroke:#4c72b0;" x="245.467882" xlink:href="#mf77c02cab5" y="234.440871"/>
     <use style="fill:#4c72b0;stroke:#4c72b0;" x="253.979468" xlink:href="#mf77c02cab5" y="217.445314"/>
     <use style="fill:#4c72b0;stroke:#4c72b0;" x="243.093556" xlink:href="#mf77c02cab5" y="203.211869"/>
     <use style="fill:#4c72b0;stroke:#4c72b0;" x="177.271364" xlink:href="#mf77c02cab5" y="173.890909"/>
     <use style="fill:#4c72b0;stroke:#4c72b0;" x="230.387299" xlink:href="#mf77c02cab5" y="223.533191"/>
    </g>
   </g>
   <g id="patch_21">
    <path d="M 171.84 268.2 
L 171.84 169.4 
" style="fill:none;stroke:#262626;stroke-linecap:square;stroke-linejoin:miter;stroke-width:1.875;"/>
   </g>
   <g id="patch_22">
    <path d="M 171.84 268.2 
L 291.33 268.2 
" style="fill:none;stroke:#262626;stroke-linecap:square;stroke-linejoin:miter;stroke-width:1.875;"/>
   </g>
   <g id="text_12">
    <!-- bfr-II -->
    <defs>
     <path d="M 14.703125 0 
L 6.546875 0 
L 6.546875 71.578125 
L 15.328125 71.578125 
L 15.328125 46.046875 
Q 20.90625 53.03125 29.546875 53.03125 
Q 34.328125 53.03125 38.59375 51.09375 
Q 42.875 49.171875 45.625 45.671875 
Q 48.390625 42.1875 49.953125 37.25 
Q 51.515625 32.328125 51.515625 26.703125 
Q 51.515625 13.375 44.921875 6.09375 
Q 38.328125 -1.171875 29.109375 -1.171875 
Q 19.921875 -1.171875 14.703125 6.5 
z
M 14.59375 26.3125 
Q 14.59375 17 17.140625 12.84375 
Q 21.296875 6.0625 28.375 6.0625 
Q 34.125 6.0625 38.328125 11.0625 
Q 42.53125 16.0625 42.53125 25.984375 
Q 42.53125 36.140625 38.5 40.96875 
Q 34.46875 45.796875 28.765625 45.796875 
Q 23 45.796875 18.796875 40.796875 
Q 14.59375 35.796875 14.59375 26.3125 
z
" id="ArialMT-98"/>
     <path d="M 8.6875 0 
L 8.6875 45.015625 
L 0.921875 45.015625 
L 0.921875 51.859375 
L 8.6875 51.859375 
L 8.6875 57.375 
Q 8.6875 62.59375 9.625 65.140625 
Q 10.890625 68.5625 14.078125 70.671875 
Q 17.28125 72.796875 23.046875 72.796875 
Q 26.765625 72.796875 31.25 71.921875 
L 29.9375 64.265625 
Q 27.203125 64.75 24.75 64.75 
Q 20.75 64.75 19.09375 63.03125 
Q 17.4375 61.328125 17.4375 56.640625 
L 17.4375 51.859375 
L 27.546875 51.859375 
L 27.546875 45.015625 
L 17.4375 45.015625 
L 17.4375 0 
z
" id="ArialMT-102"/>
    </defs>
    <g style="fill:#262626;" transform="translate(213.085781 163.4)scale(0.18 -0.18)">
     <use xlink:href="#ArialMT-98"/>
     <use x="55.615234" xlink:href="#ArialMT-102"/>
     <use x="83.398438" xlink:href="#ArialMT-114"/>
     <use x="116.699219" xlink:href="#ArialMT-45"/>
     <use x="150" xlink:href="#ArialMT-73"/>
     <use x="177.783203" xlink:href="#ArialMT-73"/>
    </g>
   </g>
  </g>
  <g id="axes_8">
   <g id="patch_23">
    <path d="M 311.13 268.2 
L 430.62 268.2 
L 430.62 169.4 
L 311.13 169.4 
z
" style="fill:#ffffff;"/>
   </g>
   <g id="matplotlib.axis_15">
    <g id="text_13">
     <!-- Protein Expression -->
     <defs>
      <path d="M 7.71875 0 
L 7.71875 71.578125 
L 34.71875 71.578125 
Q 41.84375 71.578125 45.609375 70.90625 
Q 50.875 70.015625 54.4375 67.546875 
Q 58.015625 65.09375 60.1875 60.640625 
Q 62.359375 56.203125 62.359375 50.875 
Q 62.359375 41.75 56.546875 35.421875 
Q 50.734375 29.109375 35.546875 29.109375 
L 17.1875 29.109375 
L 17.1875 0 
z
M 17.1875 37.546875 
L 35.6875 37.546875 
Q 44.875 37.546875 48.734375 40.96875 
Q 52.59375 44.390625 52.59375 50.59375 
Q 52.59375 55.078125 50.3125 58.265625 
Q 48.046875 61.46875 44.34375 62.5 
Q 41.9375 63.140625 35.5 63.140625 
L 17.1875 63.140625 
z
" id="ArialMT-80"/>
      <path d="M 6.640625 61.46875 
L 6.640625 71.578125 
L 15.4375 71.578125 
L 15.4375 61.46875 
z
M 6.640625 0 
L 6.640625 51.859375 
L 15.4375 51.859375 
L 15.4375 0 
z
" id="ArialMT-105"/>
     </defs>
     <g style="fill:#262626;" transform="translate(295.341094 285.084063)scale(0.18 -0.18)">
      <use xlink:href="#ArialMT-80"/>
      <use x="66.699219" xlink:href="#ArialMT-114"/>
      <use x="100" xlink:href="#ArialMT-111"/>
      <use x="155.615234" xlink:href="#ArialMT-116"/>
      <use x="183.398438" xlink:href="#ArialMT-101"/>
      <use x="239.013672" xlink:href="#ArialMT-105"/>
      <use x="261.230469" xlink:href="#ArialMT-110"/>
      <use x="316.845703" xlink:href="#ArialMT-32"/>
      <use x="344.628906" xlink:href="#ArialMT-69"/>
      <use x="411.328125" xlink:href="#ArialMT-120"/>
      <use x="461.328125" xlink:href="#ArialMT-112"/>
      <use x="516.943359" xlink:href="#ArialMT-114"/>
      <use x="550.244141" xlink:href="#ArialMT-101"/>
      <use x="605.859375" xlink:href="#ArialMT-115"/>
      <use x="655.859375" xlink:href="#ArialMT-115"/>
      <use x="705.859375" xlink:href="#ArialMT-105"/>
      <use x="728.076172" xlink:href="#ArialMT-111"/>
      <use x="783.691406" xlink:href="#ArialMT-110"/>
     </g>
    </g>
   </g>
   <g id="matplotlib.axis_16">
    <g id="ytick_15">
     <g id="line2d_22">
      <g>
       <use style="fill:#262626;stroke:#262626;stroke-width:1.875;" x="311.13" xlink:href="#m496822938f" y="245.996088"/>
      </g>
     </g>
    </g>
    <g id="ytick_16">
     <g id="line2d_23">
      <g>
       <use style="fill:#262626;stroke:#262626;stroke-width:1.875;" x="311.13" xlink:href="#m496822938f" y="204.468558"/>
      </g>
     </g>
    </g>
   </g>
   <g id="line2d_24">
    <g clip-path="url(#p8375711871)">
     <use style="fill:#4c72b0;stroke:#4c72b0;" x="421.250846" xlink:href="#mf77c02cab5" y="250.908754"/>
     <use style="fill:#4c72b0;stroke:#4c72b0;" x="424.718705" xlink:href="#mf77c02cab5" y="247.636122"/>
     <use style="fill:#4c72b0;stroke:#4c72b0;" x="403.390705" xlink:href="#mf77c02cab5" y="231.846513"/>
     <use style="fill:#4c72b0;stroke:#4c72b0;" x="390.052788" xlink:href="#mf77c02cab5" y="216.057171"/>
     <use style="fill:#4c72b0;stroke:#4c72b0;" x="335.480342" xlink:href="#mf77c02cab5" y="197.115881"/>
     <use style="fill:#4c72b0;stroke:#4c72b0;" x="424.870215" xlink:href="#mf77c02cab5" y="238.778014"/>
     <use style="fill:#4c72b0;stroke:#4c72b0;" x="387.824338" xlink:href="#mf77c02cab5" y="240.247663"/>
     <use style="fill:#4c72b0;stroke:#4c72b0;" x="407.400773" xlink:href="#mf77c02cab5" y="239.392572"/>
     <use style="fill:#4c72b0;stroke:#4c72b0;" x="400.94393" xlink:href="#mf77c02cab5" y="245.996088"/>
     <use style="fill:#4c72b0;stroke:#4c72b0;" x="378.904327" xlink:href="#mf77c02cab5" y="240.48982"/>
     <use style="fill:#4c72b0;stroke:#4c72b0;" x="345.087864" xlink:href="#mf77c02cab5" y="224.139788"/>
     <use style="fill:#4c72b0;stroke:#4c72b0;" x="425.188636" xlink:href="#mf77c02cab5" y="238.92664"/>
     <use style="fill:#4c72b0;stroke:#4c72b0;" x="406.220231" xlink:href="#mf77c02cab5" y="263.709091"/>
     <use style="fill:#4c72b0;stroke:#4c72b0;" x="395.899863" xlink:href="#mf77c02cab5" y="262.284124"/>
     <use style="fill:#4c72b0;stroke:#4c72b0;" x="369.490291" xlink:href="#mf77c02cab5" y="244.809728"/>
     <use style="fill:#4c72b0;stroke:#4c72b0;" x="348.765602" xlink:href="#mf77c02cab5" y="221.594642"/>
     <use style="fill:#4c72b0;stroke:#4c72b0;" x="335.125409" xlink:href="#mf77c02cab5" y="213.004356"/>
     <use style="fill:#4c72b0;stroke:#4c72b0;" x="368.212384" xlink:href="#mf77c02cab5" y="208.992553"/>
     <use style="fill:#4c72b0;stroke:#4c72b0;" x="402.635635" xlink:href="#mf77c02cab5" y="247.562101"/>
     <use style="fill:#4c72b0;stroke:#4c72b0;" x="364.688392" xlink:href="#mf77c02cab5" y="234.440871"/>
     <use style="fill:#4c72b0;stroke:#4c72b0;" x="395.027558" xlink:href="#mf77c02cab5" y="217.445314"/>
     <use style="fill:#4c72b0;stroke:#4c72b0;" x="379.942548" xlink:href="#mf77c02cab5" y="203.211869"/>
     <use style="fill:#4c72b0;stroke:#4c72b0;" x="316.561364" xlink:href="#mf77c02cab5" y="173.890909"/>
     <use style="fill:#4c72b0;stroke:#4c72b0;" x="388.141269" xlink:href="#mf77c02cab5" y="223.533191"/>
    </g>
   </g>
   <g id="patch_24">
    <path d="M 311.13 268.2 
L 311.13 169.4 
" style="fill:none;stroke:#262626;stroke-linecap:square;stroke-linejoin:miter;stroke-width:1.875;"/>
   </g>
   <g id="patch_25">
    <path d="M 311.13 268.2 
L 430.62 268.2 
" style="fill:none;stroke:#262626;stroke-linecap:square;stroke-linejoin:miter;stroke-width:1.875;"/>
   </g>
   <g id="text_14">
    <!-- bfr-I -->
    <g style="fill:#262626;" transform="translate(354.876094 163.4)scale(0.18 -0.18)">
     <use xlink:href="#ArialMT-98"/>
     <use x="55.615234" xlink:href="#ArialMT-102"/>
     <use x="83.398438" xlink:href="#ArialMT-114"/>
     <use x="116.699219" xlink:href="#ArialMT-45"/>
     <use x="150" xlink:href="#ArialMT-73"/>
    </g>
   </g>
  </g>
  <g id="axes_9">
   <g id="patch_26">
    <path d="M 450.42 268.2 
L 569.91 268.2 
L 569.91 169.4 
L 450.42 169.4 
z
" style="fill:#ffffff;"/>
   </g>
   <g id="matplotlib.axis_17"/>
   <g id="matplotlib.axis_18">
    <g id="ytick_17">
     <g id="line2d_25">
      <g>
       <use style="fill:#262626;stroke:#262626;stroke-width:1.875;" x="450.42" xlink:href="#m496822938f" y="245.996088"/>
      </g>
     </g>
    </g>
    <g id="ytick_18">
     <g id="line2d_26">
      <g>
       <use style="fill:#262626;stroke:#262626;stroke-width:1.875;" x="450.42" xlink:href="#m496822938f" y="204.468558"/>
      </g>
     </g>
    </g>
   </g>
   <g id="line2d_27">
    <g clip-path="url(#pb51ebf190c)">
     <use style="fill:#4c72b0;stroke:#4c72b0;" x="546.001607" xlink:href="#mf77c02cab5" y="250.908754"/>
     <use style="fill:#4c72b0;stroke:#4c72b0;" x="527.270535" xlink:href="#mf77c02cab5" y="247.636122"/>
     <use style="fill:#4c72b0;stroke:#4c72b0;" x="550.343688" xlink:href="#mf77c02cab5" y="231.846513"/>
     <use style="fill:#4c72b0;stroke:#4c72b0;" x="476.458728" xlink:href="#mf77c02cab5" y="216.057171"/>
     <use style="fill:#4c72b0;stroke:#4c72b0;" x="495.736517" xlink:href="#mf77c02cab5" y="197.115881"/>
     <use style="fill:#4c72b0;stroke:#4c72b0;" x="483.614693" xlink:href="#mf77c02cab5" y="238.778014"/>
     <use style="fill:#4c72b0;stroke:#4c72b0;" x="545.030441" xlink:href="#mf77c02cab5" y="240.247663"/>
     <use style="fill:#4c72b0;stroke:#4c72b0;" x="526.788137" xlink:href="#mf77c02cab5" y="239.392572"/>
     <use style="fill:#4c72b0;stroke:#4c72b0;" x="540.120203" xlink:href="#mf77c02cab5" y="245.996088"/>
     <use style="fill:#4c72b0;stroke:#4c72b0;" x="492.274483" xlink:href="#mf77c02cab5" y="240.48982"/>
     <use style="fill:#4c72b0;stroke:#4c72b0;" x="479.064989" xlink:href="#mf77c02cab5" y="224.139788"/>
     <use style="fill:#4c72b0;stroke:#4c72b0;" x="482.734444" xlink:href="#mf77c02cab5" y="238.92664"/>
     <use style="fill:#4c72b0;stroke:#4c72b0;" x="564.478636" xlink:href="#mf77c02cab5" y="263.709091"/>
     <use style="fill:#4c72b0;stroke:#4c72b0;" x="546.039127" xlink:href="#mf77c02cab5" y="262.284124"/>
     <use style="fill:#4c72b0;stroke:#4c72b0;" x="541.569013" xlink:href="#mf77c02cab5" y="244.809728"/>
     <use style="fill:#4c72b0;stroke:#4c72b0;" x="479.786258" xlink:href="#mf77c02cab5" y="221.594642"/>
     <use style="fill:#4c72b0;stroke:#4c72b0;" x="478.071371" xlink:href="#mf77c02cab5" y="213.004356"/>
     <use style="fill:#4c72b0;stroke:#4c72b0;" x="455.851364" xlink:href="#mf77c02cab5" y="208.992553"/>
     <use style="fill:#4c72b0;stroke:#4c72b0;" x="548.716179" xlink:href="#mf77c02cab5" y="247.562101"/>
     <use style="fill:#4c72b0;stroke:#4c72b0;" x="526.9546" xlink:href="#mf77c02cab5" y="234.440871"/>
     <use style="fill:#4c72b0;stroke:#4c72b0;" x="535.819484" xlink:href="#mf77c02cab5" y="217.445314"/>
     <use style="fill:#4c72b0;stroke:#4c72b0;" x="476.292873" xlink:href="#mf77c02cab5" y="203.211869"/>
     <use style="fill:#4c72b0;stroke:#4c72b0;" x="486.771917" xlink:href="#mf77c02cab5" y="173.890909"/>
     <use style="fill:#4c72b0;stroke:#4c72b0;" x="471.822051" xlink:href="#mf77c02cab5" y="223.533191"/>
    </g>
   </g>
   <g id="patch_27">
    <path d="M 450.42 268.2 
L 450.42 169.4 
" style="fill:none;stroke:#262626;stroke-linecap:square;stroke-linejoin:miter;stroke-width:1.875;"/>
   </g>
   <g id="patch_28">
    <path d="M 450.42 268.2 
L 569.91 268.2 
" style="fill:none;stroke:#262626;stroke-linecap:square;stroke-linejoin:miter;stroke-width:1.875;"/>
   </g>
   <g id="text_15">
    <!-- glnG -->
    <defs>
     <path d="M 4.984375 -4.296875 
L 13.53125 -5.5625 
Q 14.0625 -9.515625 16.5 -11.328125 
Q 19.78125 -13.765625 25.4375 -13.765625 
Q 31.546875 -13.765625 34.859375 -11.328125 
Q 38.1875 -8.890625 39.359375 -4.5 
Q 40.046875 -1.8125 39.984375 6.78125 
Q 34.234375 0 25.640625 0 
Q 14.9375 0 9.078125 7.71875 
Q 3.21875 15.4375 3.21875 26.21875 
Q 3.21875 33.640625 5.90625 39.90625 
Q 8.59375 46.1875 13.6875 49.609375 
Q 18.796875 53.03125 25.6875 53.03125 
Q 34.859375 53.03125 40.828125 45.609375 
L 40.828125 51.859375 
L 48.921875 51.859375 
L 48.921875 7.03125 
Q 48.921875 -5.078125 46.453125 -10.125 
Q 44 -15.1875 38.640625 -18.109375 
Q 33.296875 -21.046875 25.484375 -21.046875 
Q 16.21875 -21.046875 10.5 -16.875 
Q 4.78125 -12.703125 4.984375 -4.296875 
z
M 12.25 26.859375 
Q 12.25 16.65625 16.296875 11.96875 
Q 20.359375 7.28125 26.46875 7.28125 
Q 32.515625 7.28125 36.609375 11.9375 
Q 40.71875 16.609375 40.71875 26.5625 
Q 40.71875 36.078125 36.5 40.90625 
Q 32.28125 45.75 26.3125 45.75 
Q 20.453125 45.75 16.34375 40.984375 
Q 12.25 36.234375 12.25 26.859375 
z
" id="ArialMT-103"/>
    </defs>
    <g style="fill:#262626;" transform="translate(491.155313 163.4)scale(0.18 -0.18)">
     <use xlink:href="#ArialMT-103"/>
     <use x="55.615234" xlink:href="#ArialMT-108"/>
     <use x="77.832031" xlink:href="#ArialMT-110"/>
     <use x="133.447266" xlink:href="#ArialMT-71"/>
    </g>
   </g>
  </g>
  <g id="axes_10">
   <g id="patch_29">
    <path d="M 589.71 268.2 
L 709.2 268.2 
L 709.2 169.4 
L 589.71 169.4 
z
" style="fill:#ffffff;"/>
   </g>
   <g id="matplotlib.axis_19"/>
   <g id="matplotlib.axis_20">
    <g id="ytick_19">
     <g id="line2d_28">
      <g>
       <use style="fill:#262626;stroke:#262626;stroke-width:1.875;" x="589.71" xlink:href="#m496822938f" y="245.996088"/>
      </g>
     </g>
    </g>
    <g id="ytick_20">
     <g id="line2d_29">
      <g>
       <use style="fill:#262626;stroke:#262626;stroke-width:1.875;" x="589.71" xlink:href="#m496822938f" y="204.468558"/>
      </g>
     </g>
    </g>
   </g>
   <g id="line2d_30">
    <g clip-path="url(#p182c2412d5)">
     <use style="fill:#4c72b0;stroke:#4c72b0;" x="696.971397" xlink:href="#mf77c02cab5" y="250.908754"/>
     <use style="fill:#4c72b0;stroke:#4c72b0;" x="684.007389" xlink:href="#mf77c02cab5" y="247.636122"/>
     <use style="fill:#4c72b0;stroke:#4c72b0;" x="677.788544" xlink:href="#mf77c02cab5" y="231.846513"/>
     <use style="fill:#4c72b0;stroke:#4c72b0;" x="612.848082" xlink:href="#mf77c02cab5" y="216.057171"/>
     <use style="fill:#4c72b0;stroke:#4c72b0;" x="608.070449" xlink:href="#mf77c02cab5" y="197.115881"/>
     <use style="fill:#4c72b0;stroke:#4c72b0;" x="629.388906" xlink:href="#mf77c02cab5" y="238.778014"/>
     <use style="fill:#4c72b0;stroke:#4c72b0;" x="703.768636" xlink:href="#mf77c02cab5" y="240.247663"/>
     <use style="fill:#4c72b0;stroke:#4c72b0;" x="691.611215" xlink:href="#mf77c02cab5" y="239.392572"/>
     <use style="fill:#4c72b0;stroke:#4c72b0;" x="668.794343" xlink:href="#mf77c02cab5" y="245.996088"/>
     <use style="fill:#4c72b0;stroke:#4c72b0;" x="612.709098" xlink:href="#mf77c02cab5" y="240.48982"/>
     <use style="fill:#4c72b0;stroke:#4c72b0;" x="600.1967" xlink:href="#mf77c02cab5" y="224.139788"/>
     <use style="fill:#4c72b0;stroke:#4c72b0;" x="613.775706" xlink:href="#mf77c02cab5" y="238.92664"/>
     <use style="fill:#4c72b0;stroke:#4c72b0;" x="689.242645" xlink:href="#mf77c02cab5" y="263.709091"/>
     <use style="fill:#4c72b0;stroke:#4c72b0;" x="685.007953" xlink:href="#mf77c02cab5" y="262.284124"/>
     <use style="fill:#4c72b0;stroke:#4c72b0;" x="672.522609" xlink:href="#mf77c02cab5" y="244.809728"/>
     <use style="fill:#4c72b0;stroke:#4c72b0;" x="604.675941" xlink:href="#mf77c02cab5" y="221.594642"/>
     <use style="fill:#4c72b0;stroke:#4c72b0;" x="595.141364" xlink:href="#mf77c02cab5" y="213.004356"/>
     <use style="fill:#4c72b0;stroke:#4c72b0;" x="607.725464" xlink:href="#mf77c02cab5" y="208.992553"/>
     <use style="fill:#4c72b0;stroke:#4c72b0;" x="686.649242" xlink:href="#mf77c02cab5" y="247.562101"/>
     <use style="fill:#4c72b0;stroke:#4c72b0;" x="663.271128" xlink:href="#mf77c02cab5" y="234.440871"/>
     <use style="fill:#4c72b0;stroke:#4c72b0;" x="669.763433" xlink:href="#mf77c02cab5" y="217.445314"/>
     <use style="fill:#4c72b0;stroke:#4c72b0;" x="619.581399" xlink:href="#mf77c02cab5" y="203.211869"/>
     <use style="fill:#4c72b0;stroke:#4c72b0;" x="621.462905" xlink:href="#mf77c02cab5" y="173.890909"/>
     <use style="fill:#4c72b0;stroke:#4c72b0;" x="606.427657" xlink:href="#mf77c02cab5" y="223.533191"/>
    </g>
   </g>
   <g id="patch_30">
    <path d="M 589.71 268.2 
L 589.71 169.4 
" style="fill:none;stroke:#262626;stroke-linecap:square;stroke-linejoin:miter;stroke-width:1.875;"/>
   </g>
   <g id="patch_31">
    <path d="M 589.71 268.2 
L 709.2 268.2 
" style="fill:none;stroke:#262626;stroke-linecap:square;stroke-linejoin:miter;stroke-width:1.875;"/>
   </g>
   <g id="text_16">
    <!-- fruA -->
    <g style="fill:#262626;" transform="translate(632.949844 163.4)scale(0.18 -0.18)">
     <use xlink:href="#ArialMT-102"/>
     <use x="27.783203" xlink:href="#ArialMT-114"/>
     <use x="61.083984" xlink:href="#ArialMT-117"/>
     <use x="116.699219" xlink:href="#ArialMT-65"/>
    </g>
   </g>
  </g>
 </g>
 <defs>
  <clipPath id="p92a2954b68">
   <rect height="98.8" width="119.49" x="32.55" y="30.8"/>
  </clipPath>
  <clipPath id="p6b52bf003b">
   <rect height="98.8" width="119.49" x="171.84" y="30.8"/>
  </clipPath>
  <clipPath id="pc16e50d75a">
   <rect height="98.8" width="119.49" x="311.13" y="30.8"/>
  </clipPath>
  <clipPath id="p9f45049173">
   <rect height="98.8" width="119.49" x="450.42" y="30.8"/>
  </clipPath>
  <clipPath id="p74e4358d2e">
   <rect height="98.8" width="119.49" x="589.71" y="30.8"/>
  </clipPath>
  <clipPath id="p11a3e91d8c">
   <rect height="98.8" width="119.49" x="32.55" y="169.4"/>
  </clipPath>
  <clipPath id="p0df5793c5a">
   <rect height="98.8" width="119.49" x="171.84" y="169.4"/>
  </clipPath>
  <clipPath id="p8375711871">
   <rect height="98.8" width="119.49" x="311.13" y="169.4"/>
  </clipPath>
  <clipPath id="pb51ebf190c">
   <rect height="98.8" width="119.49" x="450.42" y="169.4"/>
  </clipPath>
  <clipPath id="p182c2412d5">
   <rect height="98.8" width="119.49" x="589.71" y="169.4"/>
  </clipPath>
 </defs>
</svg>
