<?xml version="1.0" encoding="utf-8" standalone="no"?>
<!DOCTYPE svg PUBLIC "-//W3C//DTD SVG 1.1//EN"
  "http://www.w3.org/Graphics/SVG/1.1/DTD/svg11.dtd">
<!-- Created with matplotlib (https://matplotlib.org/) -->
<svg height="216pt" version="1.1" viewBox="0 0 504 216" width="504pt" xmlns="http://www.w3.org/2000/svg" xmlns:xlink="http://www.w3.org/1999/xlink">
 <defs>
  <style type="text/css">
*{stroke-linecap:butt;stroke-linejoin:round;}
  </style>
 </defs>
 <g id="figure_1">
  <g id="patch_1">
   <path d="M 0 216 
L 504 216 
L 504 0 
L 0 0 
z
" style="fill:#ffffff;"/>
  </g>
  <g id="axes_1">
   <g id="patch_2">
    <path d="M 63 100.047273 
L 453.6 100.047273 
L 453.6 25.92 
L 63 25.92 
z
" style="fill:#ffffff;"/>
   </g>
   <g id="matplotlib.axis_1">
    <g id="ytick_1">
     <g id="line2d_1">
      <defs>
       <path d="M 0 0 
L -9 0 
" id="m9d41c39ee2" style="stroke:#262626;stroke-width:1.875;"/>
      </defs>
      <g>
       <use style="fill:#262626;stroke:#262626;stroke-width:1.875;" x="63" xlink:href="#m9d41c39ee2" y="85.221818"/>
      </g>
     </g>
     <g id="text_1">
      <!-- 0.8 -->
      <defs>
       <path d="M 4.15625 35.296875 
Q 4.15625 48 6.765625 55.734375 
Q 9.375 63.484375 14.515625 67.671875 
Q 19.671875 71.875 27.484375 71.875 
Q 33.25 71.875 37.59375 69.546875 
Q 41.9375 67.234375 44.765625 62.859375 
Q 47.609375 58.5 49.21875 52.21875 
Q 50.828125 45.953125 50.828125 35.296875 
Q 50.828125 22.703125 48.234375 14.96875 
Q 45.65625 7.234375 40.5 3 
Q 35.359375 -1.21875 27.484375 -1.21875 
Q 17.140625 -1.21875 11.234375 6.203125 
Q 4.15625 15.140625 4.15625 35.296875 
z
M 13.1875 35.296875 
Q 13.1875 17.671875 17.3125 11.828125 
Q 21.4375 6 27.484375 6 
Q 33.546875 6 37.671875 11.859375 
Q 41.796875 17.71875 41.796875 35.296875 
Q 41.796875 52.984375 37.671875 58.78125 
Q 33.546875 64.59375 27.390625 64.59375 
Q 21.34375 64.59375 17.71875 59.46875 
Q 13.1875 52.9375 13.1875 35.296875 
z
" id="ArialMT-48"/>
       <path d="M 9.078125 0 
L 9.078125 10.015625 
L 19.09375 10.015625 
L 19.09375 0 
z
" id="ArialMT-46"/>
       <path d="M 17.671875 38.8125 
Q 12.203125 40.828125 9.5625 44.53125 
Q 6.9375 48.25 6.9375 53.421875 
Q 6.9375 61.234375 12.546875 66.546875 
Q 18.171875 71.875 27.484375 71.875 
Q 36.859375 71.875 42.578125 66.421875 
Q 48.296875 60.984375 48.296875 53.171875 
Q 48.296875 48.1875 45.671875 44.5 
Q 43.0625 40.828125 37.75 38.8125 
Q 44.34375 36.671875 47.78125 31.875 
Q 51.21875 27.09375 51.21875 20.453125 
Q 51.21875 11.28125 44.71875 5.03125 
Q 38.234375 -1.21875 27.640625 -1.21875 
Q 17.046875 -1.21875 10.546875 5.046875 
Q 4.046875 11.328125 4.046875 20.703125 
Q 4.046875 27.6875 7.59375 32.390625 
Q 11.140625 37.109375 17.671875 38.8125 
z
M 15.921875 53.71875 
Q 15.921875 48.640625 19.1875 45.40625 
Q 22.46875 42.1875 27.6875 42.1875 
Q 32.765625 42.1875 36.015625 45.375 
Q 39.265625 48.578125 39.265625 53.21875 
Q 39.265625 58.0625 35.90625 61.359375 
Q 32.5625 64.65625 27.59375 64.65625 
Q 22.5625 64.65625 19.234375 61.421875 
Q 15.921875 58.203125 15.921875 53.71875 
z
M 13.09375 20.65625 
Q 13.09375 16.890625 14.875 13.375 
Q 16.65625 9.859375 20.171875 7.921875 
Q 23.6875 6 27.734375 6 
Q 34.03125 6 38.125 10.046875 
Q 42.234375 14.109375 42.234375 20.359375 
Q 42.234375 26.703125 38.015625 30.859375 
Q 33.796875 35.015625 27.4375 35.015625 
Q 21.234375 35.015625 17.15625 30.90625 
Q 13.09375 26.8125 13.09375 20.65625 
z
" id="ArialMT-56"/>
      </defs>
      <g style="fill:#262626;" transform="translate(27.565 91.127013)scale(0.165 -0.165)">
       <use xlink:href="#ArialMT-48"/>
       <use x="55.615234" xlink:href="#ArialMT-46"/>
       <use x="83.398438" xlink:href="#ArialMT-56"/>
      </g>
     </g>
    </g>
    <g id="ytick_2">
     <g id="line2d_2">
      <g>
       <use style="fill:#262626;stroke:#262626;stroke-width:1.875;" x="63" xlink:href="#m9d41c39ee2" y="25.92"/>
      </g>
     </g>
     <g id="text_2">
      <!-- 1.0 -->
      <defs>
       <path d="M 37.25 0 
L 28.46875 0 
L 28.46875 56 
Q 25.296875 52.984375 20.140625 49.953125 
Q 14.984375 46.921875 10.890625 45.40625 
L 10.890625 53.90625 
Q 18.265625 57.375 23.78125 62.296875 
Q 29.296875 67.234375 31.59375 71.875 
L 37.25 71.875 
z
" id="ArialMT-49"/>
      </defs>
      <g style="fill:#262626;" transform="translate(27.565 31.825195)scale(0.165 -0.165)">
       <use xlink:href="#ArialMT-49"/>
       <use x="55.615234" xlink:href="#ArialMT-46"/>
       <use x="83.398438" xlink:href="#ArialMT-48"/>
      </g>
     </g>
    </g>
    <g id="text_3">
     <!-- FCC -->
     <defs>
      <path d="M 8.203125 0 
L 8.203125 71.578125 
L 56.5 71.578125 
L 56.5 63.140625 
L 17.671875 63.140625 
L 17.671875 40.96875 
L 51.265625 40.96875 
L 51.265625 32.515625 
L 17.671875 32.515625 
L 17.671875 0 
z
" id="ArialMT-70"/>
      <path d="M 58.796875 25.09375 
L 68.265625 22.703125 
Q 65.28125 11.03125 57.546875 4.90625 
Q 49.8125 -1.21875 38.625 -1.21875 
Q 27.046875 -1.21875 19.796875 3.484375 
Q 12.546875 8.203125 8.765625 17.140625 
Q 4.984375 26.078125 4.984375 36.328125 
Q 4.984375 47.515625 9.25 55.828125 
Q 13.53125 64.15625 21.40625 68.46875 
Q 29.296875 72.796875 38.765625 72.796875 
Q 49.515625 72.796875 56.828125 67.328125 
Q 64.15625 61.859375 67.046875 51.953125 
L 57.71875 49.75 
Q 55.21875 57.5625 50.484375 61.125 
Q 45.75 64.703125 38.578125 64.703125 
Q 30.328125 64.703125 24.78125 60.734375 
Q 19.234375 56.78125 16.984375 50.109375 
Q 14.75 43.453125 14.75 36.375 
Q 14.75 27.25 17.40625 20.4375 
Q 20.0625 13.625 25.671875 10.25 
Q 31.296875 6.890625 37.84375 6.890625 
Q 45.796875 6.890625 51.3125 11.46875 
Q 56.84375 16.0625 58.796875 25.09375 
z
" id="ArialMT-67"/>
     </defs>
     <g style="fill:#262626;" transform="translate(19.9875 81.480043)rotate(-90)scale(0.18 -0.18)">
      <use xlink:href="#ArialMT-70"/>
      <use x="61.083984" xlink:href="#ArialMT-67"/>
      <use x="133.300781" xlink:href="#ArialMT-67"/>
     </g>
    </g>
   </g>
   <g id="line2d_3">
    <path clip-path="url(#p0dab219aef)" style="fill:none;stroke:#55a868;stroke-linecap:round;stroke-width:2.25;"/>
   </g>
   <g id="line2d_4">
    <path clip-path="url(#p0dab219aef)" style="fill:none;stroke:#55a868;stroke-linecap:round;stroke-width:2.25;"/>
    <defs>
     <path d="M 0 2.5 
C 0.663008 2.5 1.29895 2.236584 1.767767 1.767767 
C 2.236584 1.29895 2.5 0.663008 2.5 0 
C 2.5 -0.663008 2.236584 -1.29895 1.767767 -1.767767 
C 1.29895 -2.236584 0.663008 -2.5 0 -2.5 
C -0.663008 -2.5 -1.29895 -2.236584 -1.767767 -1.767767 
C -2.236584 -1.29895 -2.5 -0.663008 -2.5 0 
C -2.5 0.663008 -2.236584 1.29895 -1.767767 1.767767 
C -1.29895 2.236584 -0.663008 2.5 0 2.5 
z
" id="m4f0eaea898" style="stroke:#55a868;"/>
    </defs>
    <g clip-path="url(#p0dab219aef)">
     <use style="fill:#55a868;stroke:#55a868;" x="80.754545" xlink:href="#m4f0eaea898" y="344.647209"/>
    </g>
   </g>
   <g id="line2d_5">
    <path clip-path="url(#p0dab219aef)" style="fill:none;stroke:#55a868;stroke-linecap:round;stroke-width:2.25;"/>
   </g>
   <g id="line2d_6">
    <path clip-path="url(#p0dab219aef)" style="fill:none;stroke:#55a868;stroke-linecap:round;stroke-width:2.25;"/>
    <g clip-path="url(#p0dab219aef)">
     <use style="fill:#55a868;stroke:#55a868;" x="96.895041" xlink:href="#m4f0eaea898" y="329.33511"/>
    </g>
   </g>
   <g id="line2d_7">
    <path clip-path="url(#p0dab219aef)" style="fill:none;stroke:#55a868;stroke-linecap:round;stroke-width:2.25;"/>
   </g>
   <g id="line2d_8">
    <path clip-path="url(#p0dab219aef)" style="fill:none;stroke:#55a868;stroke-linecap:round;stroke-width:2.25;"/>
    <g clip-path="url(#p0dab219aef)">
     <use style="fill:#55a868;stroke:#55a868;" x="113.035537" xlink:href="#m4f0eaea898" y="325.573892"/>
    </g>
   </g>
   <g id="line2d_9">
    <path clip-path="url(#p0dab219aef)" style="fill:none;stroke:#55a868;stroke-linecap:round;stroke-width:2.25;"/>
   </g>
   <g id="line2d_10">
    <path clip-path="url(#p0dab219aef)" style="fill:none;stroke:#55a868;stroke-linecap:round;stroke-width:2.25;"/>
    <g clip-path="url(#p0dab219aef)">
     <use style="fill:#55a868;stroke:#55a868;" x="129.176033" xlink:href="#m4f0eaea898" y="325.435562"/>
    </g>
   </g>
   <g id="line2d_11">
    <path clip-path="url(#p0dab219aef)" style="fill:none;stroke:#55a868;stroke-linecap:round;stroke-width:2.25;"/>
   </g>
   <g id="line2d_12">
    <path clip-path="url(#p0dab219aef)" style="fill:none;stroke:#55a868;stroke-linecap:round;stroke-width:2.25;"/>
    <g clip-path="url(#p0dab219aef)">
     <use style="fill:#55a868;stroke:#55a868;" x="145.316529" xlink:href="#m4f0eaea898" y="325.091528"/>
    </g>
   </g>
   <g id="line2d_13">
    <path clip-path="url(#p0dab219aef)" style="fill:none;stroke:#55a868;stroke-linecap:round;stroke-width:2.25;"/>
   </g>
   <g id="line2d_14">
    <path clip-path="url(#p0dab219aef)" style="fill:none;stroke:#55a868;stroke-linecap:round;stroke-width:2.25;"/>
    <g clip-path="url(#p0dab219aef)">
     <use style="fill:#55a868;stroke:#55a868;" x="161.457025" xlink:href="#m4f0eaea898" y="323.909423"/>
    </g>
   </g>
   <g id="line2d_15">
    <path clip-path="url(#p0dab219aef)" style="fill:none;stroke:#55a868;stroke-linecap:round;stroke-width:2.25;"/>
   </g>
   <g id="line2d_16">
    <path clip-path="url(#p0dab219aef)" style="fill:none;stroke:#55a868;stroke-linecap:round;stroke-width:2.25;"/>
    <g clip-path="url(#p0dab219aef)">
     <use style="fill:#55a868;stroke:#55a868;" x="177.597521" xlink:href="#m4f0eaea898" y="323.663526"/>
    </g>
   </g>
   <g id="line2d_17">
    <path clip-path="url(#p0dab219aef)" style="fill:none;stroke:#55a868;stroke-linecap:round;stroke-width:2.25;"/>
   </g>
   <g id="line2d_18">
    <path clip-path="url(#p0dab219aef)" style="fill:none;stroke:#55a868;stroke-linecap:round;stroke-width:2.25;"/>
    <g clip-path="url(#p0dab219aef)">
     <use style="fill:#55a868;stroke:#55a868;" x="193.738017" xlink:href="#m4f0eaea898" y="321.985627"/>
    </g>
   </g>
   <g id="line2d_19">
    <path clip-path="url(#p0dab219aef)" style="fill:none;stroke:#55a868;stroke-linecap:round;stroke-width:2.25;"/>
   </g>
   <g id="line2d_20">
    <path clip-path="url(#p0dab219aef)" style="fill:none;stroke:#55a868;stroke-linecap:round;stroke-width:2.25;"/>
    <g clip-path="url(#p0dab219aef)">
     <use style="fill:#55a868;stroke:#55a868;" x="209.878512" xlink:href="#m4f0eaea898" y="321.510119"/>
    </g>
   </g>
   <g id="line2d_21">
    <path clip-path="url(#p0dab219aef)" style="fill:none;stroke:#55a868;stroke-linecap:round;stroke-width:2.25;"/>
   </g>
   <g id="line2d_22">
    <path clip-path="url(#p0dab219aef)" style="fill:none;stroke:#55a868;stroke-linecap:round;stroke-width:2.25;"/>
    <g clip-path="url(#p0dab219aef)">
     <use style="fill:#55a868;stroke:#55a868;" x="226.019008" xlink:href="#m4f0eaea898" y="321.483277"/>
    </g>
   </g>
   <g id="line2d_23">
    <path clip-path="url(#p0dab219aef)" style="fill:none;stroke:#55a868;stroke-linecap:round;stroke-width:2.25;"/>
   </g>
   <g id="line2d_24">
    <path clip-path="url(#p0dab219aef)" style="fill:none;stroke:#55a868;stroke-linecap:round;stroke-width:2.25;"/>
    <g clip-path="url(#p0dab219aef)">
     <use style="fill:#55a868;stroke:#55a868;" x="242.159504" xlink:href="#m4f0eaea898" y="320.85309"/>
    </g>
   </g>
   <g id="line2d_25">
    <path clip-path="url(#p0dab219aef)" style="fill:none;stroke:#55a868;stroke-linecap:round;stroke-width:2.25;"/>
   </g>
   <g id="line2d_26">
    <path clip-path="url(#p0dab219aef)" style="fill:none;stroke:#55a868;stroke-linecap:round;stroke-width:2.25;"/>
    <g clip-path="url(#p0dab219aef)">
     <use style="fill:#55a868;stroke:#55a868;" x="258.3" xlink:href="#m4f0eaea898" y="320.431134"/>
    </g>
   </g>
   <g id="line2d_27">
    <path clip-path="url(#p0dab219aef)" style="fill:none;stroke:#55a868;stroke-linecap:round;stroke-width:2.25;"/>
   </g>
   <g id="line2d_28">
    <path clip-path="url(#p0dab219aef)" style="fill:none;stroke:#55a868;stroke-linecap:round;stroke-width:2.25;"/>
    <g clip-path="url(#p0dab219aef)">
     <use style="fill:#55a868;stroke:#55a868;" x="274.440496" xlink:href="#m4f0eaea898" y="319.734608"/>
    </g>
   </g>
   <g id="line2d_29">
    <path clip-path="url(#p0dab219aef)" style="fill:none;stroke:#55a868;stroke-linecap:round;stroke-width:2.25;"/>
   </g>
   <g id="line2d_30">
    <path clip-path="url(#p0dab219aef)" style="fill:none;stroke:#55a868;stroke-linecap:round;stroke-width:2.25;"/>
    <g clip-path="url(#p0dab219aef)">
     <use style="fill:#55a868;stroke:#55a868;" x="290.580992" xlink:href="#m4f0eaea898" y="319.247731"/>
    </g>
   </g>
   <g id="line2d_31">
    <path clip-path="url(#p0dab219aef)" style="fill:none;stroke:#55a868;stroke-linecap:round;stroke-width:2.25;"/>
   </g>
   <g id="line2d_32">
    <path clip-path="url(#p0dab219aef)" style="fill:none;stroke:#55a868;stroke-linecap:round;stroke-width:2.25;"/>
    <g clip-path="url(#p0dab219aef)">
     <use style="fill:#55a868;stroke:#55a868;" x="306.721488" xlink:href="#m4f0eaea898" y="316.997973"/>
    </g>
   </g>
   <g id="line2d_33">
    <path clip-path="url(#p0dab219aef)" style="fill:none;stroke:#55a868;stroke-linecap:round;stroke-width:2.25;"/>
   </g>
   <g id="line2d_34">
    <path clip-path="url(#p0dab219aef)" style="fill:none;stroke:#55a868;stroke-linecap:round;stroke-width:2.25;"/>
    <g clip-path="url(#p0dab219aef)">
     <use style="fill:#55a868;stroke:#55a868;" x="322.861983" xlink:href="#m4f0eaea898" y="316.874643"/>
    </g>
   </g>
   <g id="line2d_35">
    <path clip-path="url(#p0dab219aef)" style="fill:none;stroke:#55a868;stroke-linecap:round;stroke-width:2.25;"/>
   </g>
   <g id="line2d_36">
    <path clip-path="url(#p0dab219aef)" style="fill:none;stroke:#55a868;stroke-linecap:round;stroke-width:2.25;"/>
    <g clip-path="url(#p0dab219aef)">
     <use style="fill:#55a868;stroke:#55a868;" x="339.002479" xlink:href="#m4f0eaea898" y="316.245622"/>
    </g>
   </g>
   <g id="line2d_37">
    <path clip-path="url(#p0dab219aef)" style="fill:none;stroke:#55a868;stroke-linecap:round;stroke-width:2.25;"/>
   </g>
   <g id="line2d_38">
    <path clip-path="url(#p0dab219aef)" style="fill:none;stroke:#55a868;stroke-linecap:round;stroke-width:2.25;"/>
    <g clip-path="url(#p0dab219aef)">
     <use style="fill:#55a868;stroke:#55a868;" x="355.142975" xlink:href="#m4f0eaea898" y="314.190475"/>
    </g>
   </g>
   <g id="line2d_39">
    <path clip-path="url(#p0dab219aef)" style="fill:none;stroke:#55a868;stroke-linecap:round;stroke-width:2.25;"/>
   </g>
   <g id="line2d_40">
    <path clip-path="url(#p0dab219aef)" style="fill:none;stroke:#55a868;stroke-linecap:round;stroke-width:2.25;"/>
    <g clip-path="url(#p0dab219aef)">
     <use style="fill:#55a868;stroke:#55a868;" x="371.283471" xlink:href="#m4f0eaea898" y="313.849139"/>
    </g>
   </g>
   <g id="line2d_41">
    <path clip-path="url(#p0dab219aef)" style="fill:none;stroke:#55a868;stroke-linecap:round;stroke-width:2.25;"/>
   </g>
   <g id="line2d_42">
    <path clip-path="url(#p0dab219aef)" style="fill:none;stroke:#55a868;stroke-linecap:round;stroke-width:2.25;"/>
    <g clip-path="url(#p0dab219aef)">
     <use style="fill:#55a868;stroke:#55a868;" x="387.423967" xlink:href="#m4f0eaea898" y="312.183003"/>
    </g>
   </g>
   <g id="line2d_43">
    <path clip-path="url(#p0dab219aef)" style="fill:none;stroke:#55a868;stroke-linecap:round;stroke-width:2.25;"/>
   </g>
   <g id="line2d_44">
    <path clip-path="url(#p0dab219aef)" style="fill:none;stroke:#55a868;stroke-linecap:round;stroke-width:2.25;"/>
    <g clip-path="url(#p0dab219aef)">
     <use style="fill:#55a868;stroke:#55a868;" x="403.564463" xlink:href="#m4f0eaea898" y="309.090843"/>
    </g>
   </g>
   <g id="line2d_45">
    <path clip-path="url(#p0dab219aef)" style="fill:none;stroke:#55a868;stroke-linecap:round;stroke-width:2.25;"/>
   </g>
   <g id="line2d_46">
    <path clip-path="url(#p0dab219aef)" style="fill:none;stroke:#55a868;stroke-linecap:round;stroke-width:2.25;"/>
    <g clip-path="url(#p0dab219aef)">
     <use style="fill:#55a868;stroke:#55a868;" x="419.704959" xlink:href="#m4f0eaea898" y="301.10663"/>
    </g>
   </g>
   <g id="line2d_47">
    <path clip-path="url(#p0dab219aef)" d="M 435.845455 75.884621 
L 435.845455 60.299946 
" style="fill:none;stroke:#55a868;stroke-linecap:round;stroke-width:2.25;"/>
   </g>
   <g id="line2d_48">
    <path clip-path="url(#p0dab219aef)" d="M 435.845455 67.546341 
" style="fill:none;stroke:#55a868;stroke-linecap:round;stroke-width:2.25;"/>
    <g clip-path="url(#p0dab219aef)">
     <use style="fill:#55a868;stroke:#55a868;" x="435.845455" xlink:href="#m4f0eaea898" y="67.546341"/>
    </g>
   </g>
   <g id="line2d_49">
    <path d="M 57.141 101.159182 
L 68.859 98.935364 
" style="fill:none;stroke:#1a1a1a;stroke-linecap:round;stroke-width:2.25;"/>
   </g>
   <g id="line2d_50">
    <path d="M 447.741 101.159182 
L 459.459 98.935364 
" style="fill:none;stroke:#1a1a1a;stroke-linecap:round;stroke-width:2.25;"/>
   </g>
   <g id="patch_3">
    <path d="M 63 100.047273 
L 63 25.92 
" style="fill:none;stroke:#262626;stroke-linecap:square;stroke-linejoin:miter;stroke-width:1.875;"/>
   </g>
   <g id="patch_4">
    <path d="M 453.6 100.047273 
L 453.6 25.92 
" style="fill:none;stroke:#262626;stroke-linecap:square;stroke-linejoin:miter;stroke-width:1.875;"/>
   </g>
  </g>
  <g id="axes_2">
   <g id="patch_5">
    <path d="M 63 189 
L 453.6 189 
L 453.6 114.872727 
L 63 114.872727 
z
" style="fill:#ffffff;"/>
   </g>
   <g id="matplotlib.axis_2">
    <g id="xtick_1">
     <g id="line2d_51">
      <defs>
       <path d="M 0 0 
L 0 9 
" id="m635f945e0d" style="stroke:#262626;stroke-width:1.875;"/>
      </defs>
      <g>
       <use style="fill:#262626;stroke:#262626;stroke-width:1.875;" x="80.754545" xlink:href="#m635f945e0d" y="189"/>
      </g>
     </g>
     <g id="text_4">
      <!-- NH4t -->
      <defs>
       <path d="M 7.625 0 
L 7.625 71.578125 
L 17.328125 71.578125 
L 54.9375 15.375 
L 54.9375 71.578125 
L 64.015625 71.578125 
L 64.015625 0 
L 54.296875 0 
L 16.703125 56.25 
L 16.703125 0 
z
" id="ArialMT-78"/>
       <path d="M 8.015625 0 
L 8.015625 71.578125 
L 17.484375 71.578125 
L 17.484375 42.1875 
L 54.6875 42.1875 
L 54.6875 71.578125 
L 64.15625 71.578125 
L 64.15625 0 
L 54.6875 0 
L 54.6875 33.734375 
L 17.484375 33.734375 
L 17.484375 0 
z
" id="ArialMT-72"/>
       <path d="M 32.328125 0 
L 32.328125 17.140625 
L 1.265625 17.140625 
L 1.265625 25.203125 
L 33.9375 71.578125 
L 41.109375 71.578125 
L 41.109375 25.203125 
L 50.78125 25.203125 
L 50.78125 17.140625 
L 41.109375 17.140625 
L 41.109375 0 
z
M 32.328125 25.203125 
L 32.328125 57.46875 
L 9.90625 25.203125 
z
" id="ArialMT-52"/>
       <path d="M 25.78125 7.859375 
L 27.046875 0.09375 
Q 23.34375 -0.6875 20.40625 -0.6875 
Q 15.625 -0.6875 12.984375 0.828125 
Q 10.359375 2.34375 9.28125 4.8125 
Q 8.203125 7.28125 8.203125 15.1875 
L 8.203125 45.015625 
L 1.765625 45.015625 
L 1.765625 51.859375 
L 8.203125 51.859375 
L 8.203125 64.703125 
L 16.9375 69.96875 
L 16.9375 51.859375 
L 25.78125 51.859375 
L 25.78125 45.015625 
L 16.9375 45.015625 
L 16.9375 14.703125 
Q 16.9375 10.9375 17.40625 9.859375 
Q 17.875 8.796875 18.921875 8.15625 
Q 19.96875 7.515625 21.921875 7.515625 
Q 23.390625 7.515625 25.78125 7.859375 
z
" id="ArialMT-116"/>
      </defs>
      <g style="fill:#262626;" transform="translate(84.115249 231.117656)rotate(-90)scale(0.13 -0.13)">
       <use xlink:href="#ArialMT-78"/>
       <use x="72.216797" xlink:href="#ArialMT-72"/>
       <use x="144.433594" xlink:href="#ArialMT-52"/>
       <use x="200.048828" xlink:href="#ArialMT-116"/>
      </g>
     </g>
    </g>
    <g id="xtick_2">
     <g id="line2d_52">
      <g>
       <use style="fill:#262626;stroke:#262626;stroke-width:1.875;" x="96.895041" xlink:href="#m635f945e0d" y="189"/>
      </g>
     </g>
     <g id="text_5">
      <!-- H2Ot -->
      <defs>
       <path d="M 50.34375 8.453125 
L 50.34375 0 
L 3.03125 0 
Q 2.9375 3.171875 4.046875 6.109375 
Q 5.859375 10.9375 9.828125 15.625 
Q 13.8125 20.3125 21.34375 26.46875 
Q 33.015625 36.03125 37.109375 41.625 
Q 41.21875 47.21875 41.21875 52.203125 
Q 41.21875 57.421875 37.46875 61 
Q 33.734375 64.59375 27.734375 64.59375 
Q 21.390625 64.59375 17.578125 60.78125 
Q 13.765625 56.984375 13.71875 50.25 
L 4.6875 51.171875 
Q 5.609375 61.28125 11.65625 66.578125 
Q 17.71875 71.875 27.9375 71.875 
Q 38.234375 71.875 44.234375 66.15625 
Q 50.25 60.453125 50.25 52 
Q 50.25 47.703125 48.484375 43.546875 
Q 46.734375 39.40625 42.65625 34.8125 
Q 38.578125 30.21875 29.109375 22.21875 
Q 21.1875 15.578125 18.9375 13.203125 
Q 16.703125 10.84375 15.234375 8.453125 
z
" id="ArialMT-50"/>
       <path d="M 4.828125 34.859375 
Q 4.828125 52.6875 14.390625 62.765625 
Q 23.96875 72.859375 39.109375 72.859375 
Q 49.03125 72.859375 56.984375 68.109375 
Q 64.9375 63.375 69.109375 54.90625 
Q 73.296875 46.4375 73.296875 35.6875 
Q 73.296875 24.8125 68.890625 16.21875 
Q 64.5 7.625 56.4375 3.203125 
Q 48.390625 -1.21875 39.0625 -1.21875 
Q 28.953125 -1.21875 20.984375 3.65625 
Q 13.03125 8.546875 8.921875 16.984375 
Q 4.828125 25.4375 4.828125 34.859375 
z
M 14.59375 34.71875 
Q 14.59375 21.78125 21.546875 14.328125 
Q 28.515625 6.890625 39.015625 6.890625 
Q 49.703125 6.890625 56.609375 14.40625 
Q 63.53125 21.921875 63.53125 35.75 
Q 63.53125 44.484375 60.578125 51 
Q 57.625 57.515625 51.921875 61.109375 
Q 46.234375 64.703125 39.15625 64.703125 
Q 29.109375 64.703125 21.84375 57.78125 
Q 14.59375 50.875 14.59375 34.71875 
z
" id="ArialMT-79"/>
      </defs>
      <g style="fill:#262626;" transform="translate(100.255744 231.840781)rotate(-90)scale(0.13 -0.13)">
       <use xlink:href="#ArialMT-72"/>
       <use x="72.216797" xlink:href="#ArialMT-50"/>
       <use x="127.832031" xlink:href="#ArialMT-79"/>
       <use x="205.615234" xlink:href="#ArialMT-116"/>
      </g>
     </g>
    </g>
    <g id="xtick_3">
     <g id="line2d_53">
      <g>
       <use style="fill:#262626;stroke:#262626;stroke-width:1.875;" x="113.035537" xlink:href="#m635f945e0d" y="189"/>
      </g>
     </g>
     <g id="text_6">
      <!-- NADH16 -->
      <defs>
       <path d="M -0.140625 0 
L 27.34375 71.578125 
L 37.546875 71.578125 
L 66.84375 0 
L 56.0625 0 
L 47.703125 21.6875 
L 17.78125 21.6875 
L 9.90625 0 
z
M 20.515625 29.390625 
L 44.78125 29.390625 
L 37.3125 49.21875 
Q 33.890625 58.25 32.234375 64.0625 
Q 30.859375 57.171875 28.375 50.390625 
z
" id="ArialMT-65"/>
       <path d="M 7.71875 0 
L 7.71875 71.578125 
L 32.375 71.578125 
Q 40.71875 71.578125 45.125 70.5625 
Q 51.265625 69.140625 55.609375 65.4375 
Q 61.28125 60.640625 64.078125 53.1875 
Q 66.890625 45.75 66.890625 36.1875 
Q 66.890625 28.03125 64.984375 21.734375 
Q 63.09375 15.4375 60.109375 11.296875 
Q 57.125 7.171875 53.578125 4.796875 
Q 50.046875 2.4375 45.046875 1.21875 
Q 40.046875 0 33.546875 0 
z
M 17.1875 8.453125 
L 32.46875 8.453125 
Q 39.546875 8.453125 43.578125 9.765625 
Q 47.609375 11.078125 50 13.484375 
Q 53.375 16.84375 55.25 22.53125 
Q 57.125 28.21875 57.125 36.328125 
Q 57.125 47.5625 53.4375 53.59375 
Q 49.75 59.625 44.484375 61.671875 
Q 40.671875 63.140625 32.234375 63.140625 
L 17.1875 63.140625 
z
" id="ArialMT-68"/>
       <path d="M 49.75 54.046875 
L 41.015625 53.375 
Q 39.84375 58.546875 37.703125 60.890625 
Q 34.125 64.65625 28.90625 64.65625 
Q 24.703125 64.65625 21.53125 62.3125 
Q 17.390625 59.28125 14.984375 53.46875 
Q 12.59375 47.65625 12.5 36.921875 
Q 15.671875 41.75 20.265625 44.09375 
Q 24.859375 46.4375 29.890625 46.4375 
Q 38.671875 46.4375 44.84375 39.96875 
Q 51.03125 33.5 51.03125 23.25 
Q 51.03125 16.5 48.125 10.71875 
Q 45.21875 4.9375 40.140625 1.859375 
Q 35.0625 -1.21875 28.609375 -1.21875 
Q 17.625 -1.21875 10.6875 6.859375 
Q 3.765625 14.9375 3.765625 33.5 
Q 3.765625 54.25 11.421875 63.671875 
Q 18.109375 71.875 29.4375 71.875 
Q 37.890625 71.875 43.28125 67.140625 
Q 48.6875 62.40625 49.75 54.046875 
z
M 13.875 23.1875 
Q 13.875 18.65625 15.796875 14.5 
Q 17.71875 10.359375 21.1875 8.171875 
Q 24.65625 6 28.46875 6 
Q 34.03125 6 38.03125 10.484375 
Q 42.046875 14.984375 42.046875 22.703125 
Q 42.046875 30.125 38.078125 34.390625 
Q 34.125 38.671875 28.125 38.671875 
Q 22.171875 38.671875 18.015625 34.390625 
Q 13.875 30.125 13.875 23.1875 
z
" id="ArialMT-54"/>
      </defs>
      <g style="fill:#262626;" transform="translate(116.39624 252.795156)rotate(-90)scale(0.13 -0.13)">
       <use xlink:href="#ArialMT-78"/>
       <use x="72.216797" xlink:href="#ArialMT-65"/>
       <use x="138.916016" xlink:href="#ArialMT-68"/>
       <use x="211.132812" xlink:href="#ArialMT-72"/>
       <use x="283.349609" xlink:href="#ArialMT-49"/>
       <use x="338.964844" xlink:href="#ArialMT-54"/>
      </g>
     </g>
    </g>
    <g id="xtick_4">
     <g id="line2d_54">
      <g>
       <use style="fill:#262626;stroke:#262626;stroke-width:1.875;" x="129.176033" xlink:href="#m635f945e0d" y="189"/>
      </g>
     </g>
     <g id="text_7">
      <!-- CYTBD -->
      <defs>
       <path d="M 27.875 0 
L 27.875 30.328125 
L 0.296875 71.578125 
L 11.8125 71.578125 
L 25.921875 50 
Q 29.828125 43.953125 33.203125 37.890625 
Q 36.421875 43.5 41.015625 50.53125 
L 54.890625 71.578125 
L 65.921875 71.578125 
L 37.359375 30.328125 
L 37.359375 0 
z
" id="ArialMT-89"/>
       <path d="M 25.921875 0 
L 25.921875 63.140625 
L 2.34375 63.140625 
L 2.34375 71.578125 
L 59.078125 71.578125 
L 59.078125 63.140625 
L 35.40625 63.140625 
L 35.40625 0 
z
" id="ArialMT-84"/>
       <path d="M 7.328125 0 
L 7.328125 71.578125 
L 34.1875 71.578125 
Q 42.390625 71.578125 47.34375 69.40625 
Q 52.296875 67.234375 55.09375 62.71875 
Q 57.90625 58.203125 57.90625 53.265625 
Q 57.90625 48.6875 55.421875 44.625 
Q 52.9375 40.578125 47.90625 38.09375 
Q 54.390625 36.1875 57.875 31.59375 
Q 61.375 27 61.375 20.75 
Q 61.375 15.71875 59.25 11.390625 
Q 57.125 7.078125 54 4.734375 
Q 50.875 2.390625 46.15625 1.1875 
Q 41.453125 0 34.625 0 
z
M 16.796875 41.5 
L 32.28125 41.5 
Q 38.578125 41.5 41.3125 42.328125 
Q 44.921875 43.40625 46.75 45.890625 
Q 48.578125 48.390625 48.578125 52.15625 
Q 48.578125 55.71875 46.875 58.421875 
Q 45.171875 61.140625 41.984375 62.140625 
Q 38.8125 63.140625 31.109375 63.140625 
L 16.796875 63.140625 
z
M 16.796875 8.453125 
L 34.625 8.453125 
Q 39.203125 8.453125 41.0625 8.796875 
Q 44.34375 9.375 46.53125 10.734375 
Q 48.734375 12.109375 50.140625 14.71875 
Q 51.5625 17.328125 51.5625 20.75 
Q 51.5625 24.75 49.515625 27.703125 
Q 47.46875 30.671875 43.828125 31.859375 
Q 40.1875 33.0625 33.34375 33.0625 
L 16.796875 33.0625 
z
" id="ArialMT-66"/>
      </defs>
      <g style="fill:#262626;" transform="translate(132.536736 245.559844)rotate(-90)scale(0.13 -0.13)">
       <use xlink:href="#ArialMT-67"/>
       <use x="72.216797" xlink:href="#ArialMT-89"/>
       <use x="138.916016" xlink:href="#ArialMT-84"/>
       <use x="200" xlink:href="#ArialMT-66"/>
       <use x="266.699219" xlink:href="#ArialMT-68"/>
      </g>
     </g>
    </g>
    <g id="xtick_5">
     <g id="line2d_55">
      <g>
       <use style="fill:#262626;stroke:#262626;stroke-width:1.875;" x="145.316529" xlink:href="#m635f945e0d" y="189"/>
      </g>
     </g>
     <g id="text_8">
      <!-- GND -->
      <defs>
       <path d="M 41.21875 28.078125 
L 41.21875 36.46875 
L 71.53125 36.53125 
L 71.53125 9.96875 
Q 64.546875 4.390625 57.125 1.578125 
Q 49.703125 -1.21875 41.890625 -1.21875 
Q 31.34375 -1.21875 22.71875 3.296875 
Q 14.109375 7.8125 9.71875 16.359375 
Q 5.328125 24.90625 5.328125 35.453125 
Q 5.328125 45.90625 9.6875 54.953125 
Q 14.0625 64.015625 22.265625 68.40625 
Q 30.46875 72.796875 41.15625 72.796875 
Q 48.921875 72.796875 55.1875 70.28125 
Q 61.46875 67.78125 65.03125 63.28125 
Q 68.609375 58.796875 70.453125 51.5625 
L 61.921875 49.21875 
Q 60.296875 54.6875 57.90625 57.8125 
Q 55.515625 60.9375 51.0625 62.8125 
Q 46.625 64.703125 41.21875 64.703125 
Q 34.71875 64.703125 29.984375 62.71875 
Q 25.25 60.75 22.34375 57.515625 
Q 19.4375 54.296875 17.828125 50.4375 
Q 15.09375 43.796875 15.09375 36.03125 
Q 15.09375 26.46875 18.390625 20.015625 
Q 21.6875 13.578125 27.984375 10.453125 
Q 34.28125 7.328125 41.359375 7.328125 
Q 47.515625 7.328125 53.375 9.6875 
Q 59.234375 12.0625 62.25 14.75 
L 62.25 28.078125 
z
" id="ArialMT-71"/>
      </defs>
      <g style="fill:#262626;" transform="translate(148.677232 230.388437)rotate(-90)scale(0.13 -0.13)">
       <use xlink:href="#ArialMT-71"/>
       <use x="77.783203" xlink:href="#ArialMT-78"/>
       <use x="150" xlink:href="#ArialMT-68"/>
      </g>
     </g>
    </g>
    <g id="xtick_6">
     <g id="line2d_56">
      <g>
       <use style="fill:#262626;stroke:#262626;stroke-width:1.875;" x="161.457025" xlink:href="#m635f945e0d" y="189"/>
      </g>
     </g>
     <g id="text_9">
      <!-- Biomass -->
      <defs>
       <path d="M 6.640625 61.46875 
L 6.640625 71.578125 
L 15.4375 71.578125 
L 15.4375 61.46875 
z
M 6.640625 0 
L 6.640625 51.859375 
L 15.4375 51.859375 
L 15.4375 0 
z
" id="ArialMT-105"/>
       <path d="M 3.328125 25.921875 
Q 3.328125 40.328125 11.328125 47.265625 
Q 18.015625 53.03125 27.640625 53.03125 
Q 38.328125 53.03125 45.109375 46.015625 
Q 51.90625 39.015625 51.90625 26.65625 
Q 51.90625 16.65625 48.90625 10.90625 
Q 45.90625 5.171875 40.15625 2 
Q 34.421875 -1.171875 27.640625 -1.171875 
Q 16.75 -1.171875 10.03125 5.8125 
Q 3.328125 12.796875 3.328125 25.921875 
z
M 12.359375 25.921875 
Q 12.359375 15.96875 16.703125 11.015625 
Q 21.046875 6.0625 27.640625 6.0625 
Q 34.1875 6.0625 38.53125 11.03125 
Q 42.875 16.015625 42.875 26.21875 
Q 42.875 35.84375 38.5 40.796875 
Q 34.125 45.75 27.640625 45.75 
Q 21.046875 45.75 16.703125 40.8125 
Q 12.359375 35.890625 12.359375 25.921875 
z
" id="ArialMT-111"/>
       <path d="M 6.59375 0 
L 6.59375 51.859375 
L 14.453125 51.859375 
L 14.453125 44.578125 
Q 16.890625 48.390625 20.9375 50.703125 
Q 25 53.03125 30.171875 53.03125 
Q 35.9375 53.03125 39.625 50.640625 
Q 43.3125 48.25 44.828125 43.953125 
Q 50.984375 53.03125 60.84375 53.03125 
Q 68.5625 53.03125 72.703125 48.75 
Q 76.859375 44.484375 76.859375 35.59375 
L 76.859375 0 
L 68.109375 0 
L 68.109375 32.671875 
Q 68.109375 37.9375 67.25 40.25 
Q 66.40625 42.578125 64.15625 43.984375 
Q 61.921875 45.40625 58.890625 45.40625 
Q 53.421875 45.40625 49.796875 41.765625 
Q 46.1875 38.140625 46.1875 30.125 
L 46.1875 0 
L 37.40625 0 
L 37.40625 33.6875 
Q 37.40625 39.546875 35.25 42.46875 
Q 33.109375 45.40625 28.21875 45.40625 
Q 24.515625 45.40625 21.359375 43.453125 
Q 18.21875 41.5 16.796875 37.734375 
Q 15.375 33.984375 15.375 26.90625 
L 15.375 0 
z
" id="ArialMT-109"/>
       <path d="M 40.4375 6.390625 
Q 35.546875 2.25 31.03125 0.53125 
Q 26.515625 -1.171875 21.34375 -1.171875 
Q 12.796875 -1.171875 8.203125 3 
Q 3.609375 7.171875 3.609375 13.671875 
Q 3.609375 17.484375 5.34375 20.625 
Q 7.078125 23.78125 9.890625 25.6875 
Q 12.703125 27.59375 16.21875 28.5625 
Q 18.796875 29.25 24.03125 29.890625 
Q 34.671875 31.15625 39.703125 32.90625 
Q 39.75 34.71875 39.75 35.203125 
Q 39.75 40.578125 37.25 42.78125 
Q 33.890625 45.75 27.25 45.75 
Q 21.046875 45.75 18.09375 43.578125 
Q 15.140625 41.40625 13.71875 35.890625 
L 5.125 37.0625 
Q 6.296875 42.578125 8.984375 45.96875 
Q 11.671875 49.359375 16.75 51.1875 
Q 21.828125 53.03125 28.515625 53.03125 
Q 35.15625 53.03125 39.296875 51.46875 
Q 43.453125 49.90625 45.40625 47.53125 
Q 47.359375 45.171875 48.140625 41.546875 
Q 48.578125 39.3125 48.578125 33.453125 
L 48.578125 21.734375 
Q 48.578125 9.46875 49.140625 6.21875 
Q 49.703125 2.984375 51.375 0 
L 42.1875 0 
Q 40.828125 2.734375 40.4375 6.390625 
z
M 39.703125 26.03125 
Q 34.90625 24.078125 25.34375 22.703125 
Q 19.921875 21.921875 17.671875 20.9375 
Q 15.4375 19.96875 14.203125 18.09375 
Q 12.984375 16.21875 12.984375 13.921875 
Q 12.984375 10.40625 15.640625 8.0625 
Q 18.3125 5.71875 23.4375 5.71875 
Q 28.515625 5.71875 32.46875 7.9375 
Q 36.421875 10.15625 38.28125 14.015625 
Q 39.703125 17 39.703125 22.796875 
z
" id="ArialMT-97"/>
       <path d="M 3.078125 15.484375 
L 11.765625 16.84375 
Q 12.5 11.625 15.84375 8.84375 
Q 19.1875 6.0625 25.203125 6.0625 
Q 31.25 6.0625 34.171875 8.515625 
Q 37.109375 10.984375 37.109375 14.3125 
Q 37.109375 17.28125 34.515625 19 
Q 32.71875 20.171875 25.53125 21.96875 
Q 15.875 24.421875 12.140625 26.203125 
Q 8.40625 27.984375 6.46875 31.125 
Q 4.546875 34.28125 4.546875 38.09375 
Q 4.546875 41.546875 6.125 44.5 
Q 7.71875 47.46875 10.453125 49.421875 
Q 12.5 50.921875 16.03125 51.96875 
Q 19.578125 53.03125 23.640625 53.03125 
Q 29.734375 53.03125 34.34375 51.265625 
Q 38.96875 49.515625 41.15625 46.5 
Q 43.359375 43.5 44.1875 38.484375 
L 35.59375 37.3125 
Q 35.015625 41.3125 32.203125 43.546875 
Q 29.390625 45.796875 24.265625 45.796875 
Q 18.21875 45.796875 15.625 43.796875 
Q 13.03125 41.796875 13.03125 39.109375 
Q 13.03125 37.40625 14.109375 36.03125 
Q 15.1875 34.625 17.484375 33.6875 
Q 18.796875 33.203125 25.25 31.453125 
Q 34.578125 28.953125 38.25 27.359375 
Q 41.9375 25.78125 44.03125 22.75 
Q 46.140625 19.734375 46.140625 15.234375 
Q 46.140625 10.84375 43.578125 6.953125 
Q 41.015625 3.078125 36.171875 0.953125 
Q 31.34375 -1.171875 25.25 -1.171875 
Q 15.140625 -1.171875 9.84375 3.03125 
Q 4.546875 7.234375 3.078125 15.484375 
z
" id="ArialMT-115"/>
      </defs>
      <g style="fill:#262626;" transform="translate(164.817728 251.346875)rotate(-90)scale(0.13 -0.13)">
       <use xlink:href="#ArialMT-66"/>
       <use x="66.699219" xlink:href="#ArialMT-105"/>
       <use x="88.916016" xlink:href="#ArialMT-111"/>
       <use x="144.53125" xlink:href="#ArialMT-109"/>
       <use x="227.832031" xlink:href="#ArialMT-97"/>
       <use x="283.447266" xlink:href="#ArialMT-115"/>
       <use x="333.447266" xlink:href="#ArialMT-115"/>
      </g>
     </g>
    </g>
    <g id="xtick_7">
     <g id="line2d_57">
      <g>
       <use style="fill:#262626;stroke:#262626;stroke-width:1.875;" x="177.597521" xlink:href="#m635f945e0d" y="189"/>
      </g>
     </g>
     <g id="text_10">
      <!-- G6PDH2 -->
      <defs>
       <path d="M 7.71875 0 
L 7.71875 71.578125 
L 34.71875 71.578125 
Q 41.84375 71.578125 45.609375 70.90625 
Q 50.875 70.015625 54.4375 67.546875 
Q 58.015625 65.09375 60.1875 60.640625 
Q 62.359375 56.203125 62.359375 50.875 
Q 62.359375 41.75 56.546875 35.421875 
Q 50.734375 29.109375 35.546875 29.109375 
L 17.1875 29.109375 
L 17.1875 0 
z
M 17.1875 37.546875 
L 35.6875 37.546875 
Q 44.875 37.546875 48.734375 40.96875 
Q 52.59375 44.390625 52.59375 50.59375 
Q 52.59375 55.078125 50.3125 58.265625 
Q 48.046875 61.46875 44.34375 62.5 
Q 41.9375 63.140625 35.5 63.140625 
L 17.1875 63.140625 
z
" id="ArialMT-80"/>
      </defs>
      <g style="fill:#262626;" transform="translate(180.958224 253.518281)rotate(-90)scale(0.13 -0.13)">
       <use xlink:href="#ArialMT-71"/>
       <use x="77.783203" xlink:href="#ArialMT-54"/>
       <use x="133.398438" xlink:href="#ArialMT-80"/>
       <use x="200.097656" xlink:href="#ArialMT-68"/>
       <use x="272.314453" xlink:href="#ArialMT-72"/>
       <use x="344.53125" xlink:href="#ArialMT-50"/>
      </g>
     </g>
    </g>
    <g id="xtick_8">
     <g id="line2d_58">
      <g>
       <use style="fill:#262626;stroke:#262626;stroke-width:1.875;" x="193.738017" xlink:href="#m635f945e0d" y="189"/>
      </g>
     </g>
     <g id="text_11">
      <!-- THD2 -->
      <g style="fill:#262626;" transform="translate(197.09872 235.44625)rotate(-90)scale(0.13 -0.13)">
       <use xlink:href="#ArialMT-84"/>
       <use x="61.083984" xlink:href="#ArialMT-72"/>
       <use x="133.300781" xlink:href="#ArialMT-68"/>
       <use x="205.517578" xlink:href="#ArialMT-50"/>
      </g>
     </g>
    </g>
    <g id="xtick_9">
     <g id="line2d_59">
      <g>
       <use style="fill:#262626;stroke:#262626;stroke-width:1.875;" x="209.878512" xlink:href="#m635f945e0d" y="189"/>
      </g>
     </g>
     <g id="text_12">
      <!-- NADTRHD -->
      <defs>
       <path d="M 7.859375 0 
L 7.859375 71.578125 
L 39.59375 71.578125 
Q 49.171875 71.578125 54.140625 69.640625 
Q 59.125 67.71875 62.109375 62.828125 
Q 65.09375 57.953125 65.09375 52.046875 
Q 65.09375 44.4375 60.15625 39.203125 
Q 55.21875 33.984375 44.921875 32.5625 
Q 48.6875 30.765625 50.640625 29 
Q 54.78125 25.203125 58.5 19.484375 
L 70.953125 0 
L 59.03125 0 
L 49.5625 14.890625 
Q 45.40625 21.34375 42.71875 24.75 
Q 40.046875 28.171875 37.921875 29.53125 
Q 35.796875 30.90625 33.59375 31.453125 
Q 31.984375 31.78125 28.328125 31.78125 
L 17.328125 31.78125 
L 17.328125 0 
z
M 17.328125 39.984375 
L 37.703125 39.984375 
Q 44.1875 39.984375 47.84375 41.328125 
Q 51.515625 42.671875 53.421875 45.625 
Q 55.328125 48.578125 55.328125 52.046875 
Q 55.328125 57.125 51.640625 60.390625 
Q 47.953125 63.671875 39.984375 63.671875 
L 17.328125 63.671875 
z
" id="ArialMT-82"/>
      </defs>
      <g style="fill:#262626;" transform="translate(213.239216 265.05375)rotate(-90)scale(0.13 -0.13)">
       <use xlink:href="#ArialMT-78"/>
       <use x="72.216797" xlink:href="#ArialMT-65"/>
       <use x="138.916016" xlink:href="#ArialMT-68"/>
       <use x="211.132812" xlink:href="#ArialMT-84"/>
       <use x="272.216797" xlink:href="#ArialMT-82"/>
       <use x="344.433594" xlink:href="#ArialMT-72"/>
       <use x="416.650391" xlink:href="#ArialMT-68"/>
      </g>
     </g>
    </g>
    <g id="xtick_10">
     <g id="line2d_60">
      <g>
       <use style="fill:#262626;stroke:#262626;stroke-width:1.875;" x="226.019008" xlink:href="#m635f945e0d" y="189"/>
      </g>
     </g>
     <g id="text_13">
      <!-- EX_glc_e -->
      <defs>
       <path d="M 7.90625 0 
L 7.90625 71.578125 
L 59.671875 71.578125 
L 59.671875 63.140625 
L 17.390625 63.140625 
L 17.390625 41.21875 
L 56.984375 41.21875 
L 56.984375 32.8125 
L 17.390625 32.8125 
L 17.390625 8.453125 
L 61.328125 8.453125 
L 61.328125 0 
z
" id="ArialMT-69"/>
       <path d="M 0.4375 0 
L 28.125 37.3125 
L 3.71875 71.578125 
L 14.984375 71.578125 
L 27.984375 53.21875 
Q 32.03125 47.515625 33.734375 44.4375 
Q 36.140625 48.34375 39.40625 52.59375 
L 53.8125 71.578125 
L 64.109375 71.578125 
L 38.96875 37.84375 
L 66.0625 0 
L 54.34375 0 
L 36.328125 25.53125 
Q 34.8125 27.734375 33.203125 30.328125 
Q 30.8125 26.421875 29.78125 24.953125 
L 11.8125 0 
z
" id="ArialMT-88"/>
       <path d="M -1.515625 -19.875 
L -1.515625 -13.53125 
L 56.734375 -13.53125 
L 56.734375 -19.875 
z
" id="ArialMT-95"/>
       <path d="M 4.984375 -4.296875 
L 13.53125 -5.5625 
Q 14.0625 -9.515625 16.5 -11.328125 
Q 19.78125 -13.765625 25.4375 -13.765625 
Q 31.546875 -13.765625 34.859375 -11.328125 
Q 38.1875 -8.890625 39.359375 -4.5 
Q 40.046875 -1.8125 39.984375 6.78125 
Q 34.234375 0 25.640625 0 
Q 14.9375 0 9.078125 7.71875 
Q 3.21875 15.4375 3.21875 26.21875 
Q 3.21875 33.640625 5.90625 39.90625 
Q 8.59375 46.1875 13.6875 49.609375 
Q 18.796875 53.03125 25.6875 53.03125 
Q 34.859375 53.03125 40.828125 45.609375 
L 40.828125 51.859375 
L 48.921875 51.859375 
L 48.921875 7.03125 
Q 48.921875 -5.078125 46.453125 -10.125 
Q 44 -15.1875 38.640625 -18.109375 
Q 33.296875 -21.046875 25.484375 -21.046875 
Q 16.21875 -21.046875 10.5 -16.875 
Q 4.78125 -12.703125 4.984375 -4.296875 
z
M 12.25 26.859375 
Q 12.25 16.65625 16.296875 11.96875 
Q 20.359375 7.28125 26.46875 7.28125 
Q 32.515625 7.28125 36.609375 11.9375 
Q 40.71875 16.609375 40.71875 26.5625 
Q 40.71875 36.078125 36.5 40.90625 
Q 32.28125 45.75 26.3125 45.75 
Q 20.453125 45.75 16.34375 40.984375 
Q 12.25 36.234375 12.25 26.859375 
z
" id="ArialMT-103"/>
       <path d="M 6.390625 0 
L 6.390625 71.578125 
L 15.1875 71.578125 
L 15.1875 0 
z
" id="ArialMT-108"/>
       <path d="M 40.4375 19 
L 49.078125 17.875 
Q 47.65625 8.9375 41.8125 3.875 
Q 35.984375 -1.171875 27.484375 -1.171875 
Q 16.84375 -1.171875 10.375 5.78125 
Q 3.90625 12.75 3.90625 25.734375 
Q 3.90625 34.125 6.6875 40.421875 
Q 9.46875 46.734375 15.15625 49.875 
Q 20.84375 53.03125 27.546875 53.03125 
Q 35.984375 53.03125 41.359375 48.75 
Q 46.734375 44.484375 48.25 36.625 
L 39.703125 35.296875 
Q 38.484375 40.53125 35.375 43.15625 
Q 32.28125 45.796875 27.875 45.796875 
Q 21.234375 45.796875 17.078125 41.03125 
Q 12.9375 36.28125 12.9375 25.984375 
Q 12.9375 15.53125 16.9375 10.796875 
Q 20.953125 6.0625 27.390625 6.0625 
Q 32.5625 6.0625 36.03125 9.234375 
Q 39.5 12.40625 40.4375 19 
z
" id="ArialMT-99"/>
       <path d="M 42.09375 16.703125 
L 51.171875 15.578125 
Q 49.03125 7.625 43.21875 3.21875 
Q 37.40625 -1.171875 28.375 -1.171875 
Q 17 -1.171875 10.328125 5.828125 
Q 3.65625 12.84375 3.65625 25.484375 
Q 3.65625 38.578125 10.390625 45.796875 
Q 17.140625 53.03125 27.875 53.03125 
Q 38.28125 53.03125 44.875 45.953125 
Q 51.46875 38.875 51.46875 26.03125 
Q 51.46875 25.25 51.421875 23.6875 
L 12.75 23.6875 
Q 13.234375 15.140625 17.578125 10.59375 
Q 21.921875 6.0625 28.421875 6.0625 
Q 33.25 6.0625 36.671875 8.59375 
Q 40.09375 11.140625 42.09375 16.703125 
z
M 13.234375 30.90625 
L 42.1875 30.90625 
Q 41.609375 37.453125 38.875 40.71875 
Q 34.671875 45.796875 27.984375 45.796875 
Q 21.921875 45.796875 17.796875 41.75 
Q 13.671875 37.703125 13.234375 30.90625 
z
" id="ArialMT-101"/>
      </defs>
      <g style="fill:#262626;" transform="translate(229.30354 257.148125)rotate(-90)scale(0.13 -0.13)">
       <use xlink:href="#ArialMT-69"/>
       <use x="66.699219" xlink:href="#ArialMT-88"/>
       <use x="133.398438" xlink:href="#ArialMT-95"/>
       <use x="189.013672" xlink:href="#ArialMT-103"/>
       <use x="244.628906" xlink:href="#ArialMT-108"/>
       <use x="266.845703" xlink:href="#ArialMT-99"/>
       <use x="316.845703" xlink:href="#ArialMT-95"/>
       <use x="372.460938" xlink:href="#ArialMT-101"/>
      </g>
     </g>
    </g>
    <g id="xtick_11">
     <g id="line2d_61">
      <g>
       <use style="fill:#262626;stroke:#262626;stroke-width:1.875;" x="242.159504" xlink:href="#m635f945e0d" y="189"/>
      </g>
     </g>
     <g id="text_14">
      <!-- GLCNt -->
      <defs>
       <path d="M 7.328125 0 
L 7.328125 71.578125 
L 16.796875 71.578125 
L 16.796875 8.453125 
L 52.046875 8.453125 
L 52.046875 0 
z
" id="ArialMT-76"/>
      </defs>
      <g style="fill:#262626;" transform="translate(245.520207 241.229219)rotate(-90)scale(0.13 -0.13)">
       <use xlink:href="#ArialMT-71"/>
       <use x="77.783203" xlink:href="#ArialMT-76"/>
       <use x="133.398438" xlink:href="#ArialMT-67"/>
       <use x="205.615234" xlink:href="#ArialMT-78"/>
       <use x="277.832031" xlink:href="#ArialMT-116"/>
      </g>
     </g>
    </g>
    <g id="xtick_12">
     <g id="line2d_62">
      <g>
       <use style="fill:#262626;stroke:#262626;stroke-width:1.875;" x="258.3" xlink:href="#m635f945e0d" y="189"/>
      </g>
     </g>
     <g id="text_15">
      <!-- EX_fru_e -->
      <defs>
       <path d="M 8.6875 0 
L 8.6875 45.015625 
L 0.921875 45.015625 
L 0.921875 51.859375 
L 8.6875 51.859375 
L 8.6875 57.375 
Q 8.6875 62.59375 9.625 65.140625 
Q 10.890625 68.5625 14.078125 70.671875 
Q 17.28125 72.796875 23.046875 72.796875 
Q 26.765625 72.796875 31.25 71.921875 
L 29.9375 64.265625 
Q 27.203125 64.75 24.75 64.75 
Q 20.75 64.75 19.09375 63.03125 
Q 17.4375 61.328125 17.4375 56.640625 
L 17.4375 51.859375 
L 27.546875 51.859375 
L 27.546875 45.015625 
L 17.4375 45.015625 
L 17.4375 0 
z
" id="ArialMT-102"/>
       <path d="M 6.5 0 
L 6.5 51.859375 
L 14.40625 51.859375 
L 14.40625 44 
Q 17.4375 49.515625 20 51.265625 
Q 22.5625 53.03125 25.640625 53.03125 
Q 30.078125 53.03125 34.671875 50.203125 
L 31.640625 42.046875 
Q 28.421875 43.953125 25.203125 43.953125 
Q 22.3125 43.953125 20.015625 42.21875 
Q 17.71875 40.484375 16.75 37.40625 
Q 15.28125 32.71875 15.28125 27.15625 
L 15.28125 0 
z
" id="ArialMT-114"/>
       <path d="M 40.578125 0 
L 40.578125 7.625 
Q 34.515625 -1.171875 24.125 -1.171875 
Q 19.53125 -1.171875 15.546875 0.578125 
Q 11.578125 2.34375 9.640625 5 
Q 7.71875 7.671875 6.9375 11.53125 
Q 6.390625 14.109375 6.390625 19.734375 
L 6.390625 51.859375 
L 15.1875 51.859375 
L 15.1875 23.09375 
Q 15.1875 16.21875 15.71875 13.8125 
Q 16.546875 10.359375 19.234375 8.375 
Q 21.921875 6.390625 25.875 6.390625 
Q 29.828125 6.390625 33.296875 8.421875 
Q 36.765625 10.453125 38.203125 13.9375 
Q 39.65625 17.4375 39.65625 24.078125 
L 39.65625 51.859375 
L 48.4375 51.859375 
L 48.4375 0 
z
" id="ArialMT-117"/>
      </defs>
      <g style="fill:#262626;" transform="translate(261.739922 255.699844)rotate(-90)scale(0.13 -0.13)">
       <use xlink:href="#ArialMT-69"/>
       <use x="66.699219" xlink:href="#ArialMT-88"/>
       <use x="133.398438" xlink:href="#ArialMT-95"/>
       <use x="189.013672" xlink:href="#ArialMT-102"/>
       <use x="216.796875" xlink:href="#ArialMT-114"/>
       <use x="250.097656" xlink:href="#ArialMT-117"/>
       <use x="305.712891" xlink:href="#ArialMT-95"/>
       <use x="361.328125" xlink:href="#ArialMT-101"/>
      </g>
     </g>
    </g>
    <g id="xtick_13">
     <g id="line2d_63">
      <g>
       <use style="fill:#262626;stroke:#262626;stroke-width:1.875;" x="274.440496" xlink:href="#m635f945e0d" y="189"/>
      </g>
     </g>
     <g id="text_16">
      <!-- GNK -->
      <defs>
       <path d="M 7.328125 0 
L 7.328125 71.578125 
L 16.796875 71.578125 
L 16.796875 36.078125 
L 52.34375 71.578125 
L 65.1875 71.578125 
L 35.15625 42.578125 
L 66.5 0 
L 54 0 
L 28.515625 36.234375 
L 16.796875 24.8125 
L 16.796875 0 
z
" id="ArialMT-75"/>
      </defs>
      <g style="fill:#262626;" transform="translate(277.801199 229.671406)rotate(-90)scale(0.13 -0.13)">
       <use xlink:href="#ArialMT-71"/>
       <use x="77.783203" xlink:href="#ArialMT-78"/>
       <use x="150" xlink:href="#ArialMT-75"/>
      </g>
     </g>
    </g>
    <g id="xtick_14">
     <g id="line2d_64">
      <g>
       <use style="fill:#262626;stroke:#262626;stroke-width:1.875;" x="290.580992" xlink:href="#m635f945e0d" y="189"/>
      </g>
     </g>
     <g id="text_17">
      <!-- DM_ccmuac_c -->
      <defs>
       <path d="M 7.421875 0 
L 7.421875 71.578125 
L 21.6875 71.578125 
L 38.625 20.90625 
Q 40.96875 13.8125 42.046875 10.296875 
Q 43.265625 14.203125 45.84375 21.78125 
L 62.984375 71.578125 
L 75.734375 71.578125 
L 75.734375 0 
L 66.609375 0 
L 66.609375 59.90625 
L 45.796875 0 
L 37.25 0 
L 16.546875 60.9375 
L 16.546875 0 
z
" id="ArialMT-77"/>
      </defs>
      <g style="fill:#262626;" transform="translate(293.941695 287.4625)rotate(-90)scale(0.13 -0.13)">
       <use xlink:href="#ArialMT-68"/>
       <use x="72.216797" xlink:href="#ArialMT-77"/>
       <use x="155.517578" xlink:href="#ArialMT-95"/>
       <use x="211.132812" xlink:href="#ArialMT-99"/>
       <use x="261.132812" xlink:href="#ArialMT-99"/>
       <use x="311.132812" xlink:href="#ArialMT-109"/>
       <use x="394.433594" xlink:href="#ArialMT-117"/>
       <use x="450.048828" xlink:href="#ArialMT-97"/>
       <use x="505.664062" xlink:href="#ArialMT-99"/>
       <use x="555.664062" xlink:href="#ArialMT-95"/>
       <use x="611.279297" xlink:href="#ArialMT-99"/>
      </g>
     </g>
    </g>
    <g id="xtick_15">
     <g id="line2d_65">
      <g>
       <use style="fill:#262626;stroke:#262626;stroke-width:1.875;" x="306.721488" xlink:href="#m635f945e0d" y="189"/>
      </g>
     </g>
     <g id="text_18">
      <!-- CATDOX -->
      <g style="fill:#262626;" transform="translate(310.082191 255.657187)rotate(-90)scale(0.13 -0.13)">
       <use xlink:href="#ArialMT-67"/>
       <use x="72.216797" xlink:href="#ArialMT-65"/>
       <use x="138.806641" xlink:href="#ArialMT-84"/>
       <use x="199.890625" xlink:href="#ArialMT-68"/>
       <use x="272.107422" xlink:href="#ArialMT-79"/>
       <use x="349.890625" xlink:href="#ArialMT-88"/>
      </g>
     </g>
    </g>
    <g id="xtick_16">
     <g id="line2d_66">
      <g>
       <use style="fill:#262626;stroke:#262626;stroke-width:1.875;" x="322.861983" xlink:href="#m635f945e0d" y="189"/>
      </g>
     </g>
     <g id="text_19">
      <!-- PGLCNDH -->
      <g style="fill:#262626;" transform="translate(326.222687 265.065937)rotate(-90)scale(0.13 -0.13)">
       <use xlink:href="#ArialMT-80"/>
       <use x="66.699219" xlink:href="#ArialMT-71"/>
       <use x="144.482422" xlink:href="#ArialMT-76"/>
       <use x="200.097656" xlink:href="#ArialMT-67"/>
       <use x="272.314453" xlink:href="#ArialMT-78"/>
       <use x="344.53125" xlink:href="#ArialMT-68"/>
       <use x="416.748047" xlink:href="#ArialMT-72"/>
      </g>
     </g>
    </g>
    <g id="xtick_17">
     <g id="line2d_67">
      <g>
       <use style="fill:#262626;stroke:#262626;stroke-width:1.875;" x="339.002479" xlink:href="#m635f945e0d" y="189"/>
      </g>
     </g>
     <g id="text_20">
      <!-- DHSKDH -->
      <defs>
       <path d="M 4.5 23 
L 13.421875 23.78125 
Q 14.0625 18.40625 16.375 14.96875 
Q 18.703125 11.53125 23.578125 9.40625 
Q 28.46875 7.28125 34.578125 7.28125 
Q 39.984375 7.28125 44.140625 8.890625 
Q 48.296875 10.5 50.3125 13.296875 
Q 52.34375 16.109375 52.34375 19.4375 
Q 52.34375 22.796875 50.390625 25.3125 
Q 48.4375 27.828125 43.953125 29.546875 
Q 41.0625 30.671875 31.203125 33.03125 
Q 21.34375 35.40625 17.390625 37.5 
Q 12.25 40.1875 9.734375 44.15625 
Q 7.234375 48.140625 7.234375 53.078125 
Q 7.234375 58.5 10.296875 63.203125 
Q 13.375 67.921875 19.28125 70.359375 
Q 25.203125 72.796875 32.421875 72.796875 
Q 40.375 72.796875 46.453125 70.234375 
Q 52.546875 67.671875 55.8125 62.6875 
Q 59.078125 57.71875 59.328125 51.421875 
L 50.25 50.734375 
Q 49.515625 57.515625 45.28125 60.984375 
Q 41.0625 64.453125 32.8125 64.453125 
Q 24.21875 64.453125 20.28125 61.296875 
Q 16.359375 58.15625 16.359375 53.71875 
Q 16.359375 49.859375 19.140625 47.359375 
Q 21.875 44.875 33.421875 42.265625 
Q 44.96875 39.65625 49.265625 37.703125 
Q 55.515625 34.8125 58.484375 30.390625 
Q 61.46875 25.984375 61.46875 20.21875 
Q 61.46875 14.5 58.203125 9.4375 
Q 54.9375 4.390625 48.796875 1.578125 
Q 42.671875 -1.21875 35.015625 -1.21875 
Q 25.296875 -1.21875 18.71875 1.609375 
Q 12.15625 4.4375 8.421875 10.125 
Q 4.6875 15.828125 4.5 23 
z
" id="ArialMT-83"/>
      </defs>
      <g style="fill:#262626;" transform="translate(342.363182 256.396562)rotate(-90)scale(0.13 -0.13)">
       <use xlink:href="#ArialMT-68"/>
       <use x="72.216797" xlink:href="#ArialMT-72"/>
       <use x="144.433594" xlink:href="#ArialMT-83"/>
       <use x="211.132812" xlink:href="#ArialMT-75"/>
       <use x="277.832031" xlink:href="#ArialMT-68"/>
       <use x="350.048828" xlink:href="#ArialMT-72"/>
      </g>
     </g>
    </g>
    <g id="xtick_18">
     <g id="line2d_68">
      <g>
       <use style="fill:#262626;stroke:#262626;stroke-width:1.875;" x="355.142975" xlink:href="#m635f945e0d" y="189"/>
      </g>
     </g>
     <g id="text_21">
      <!-- FBA -->
      <g style="fill:#262626;" transform="translate(358.503678 226.782969)rotate(-90)scale(0.13 -0.13)">
       <use xlink:href="#ArialMT-70"/>
       <use x="61.083984" xlink:href="#ArialMT-66"/>
       <use x="127.783203" xlink:href="#ArialMT-65"/>
      </g>
     </g>
    </g>
    <g id="xtick_19">
     <g id="line2d_69">
      <g>
       <use style="fill:#262626;stroke:#262626;stroke-width:1.875;" x="371.283471" xlink:href="#m635f945e0d" y="189"/>
      </g>
     </g>
     <g id="text_22">
      <!-- GAD2ktpp -->
      <defs>
       <path d="M 6.640625 0 
L 6.640625 71.578125 
L 15.4375 71.578125 
L 15.4375 30.765625 
L 36.234375 51.859375 
L 47.609375 51.859375 
L 27.78125 32.625 
L 49.609375 0 
L 38.765625 0 
L 21.625 26.515625 
L 15.4375 20.5625 
L 15.4375 0 
z
" id="ArialMT-107"/>
       <path d="M 6.59375 -19.875 
L 6.59375 51.859375 
L 14.59375 51.859375 
L 14.59375 45.125 
Q 17.4375 49.078125 21 51.046875 
Q 24.5625 53.03125 29.640625 53.03125 
Q 36.28125 53.03125 41.359375 49.609375 
Q 46.4375 46.1875 49.015625 39.953125 
Q 51.609375 33.734375 51.609375 26.3125 
Q 51.609375 18.359375 48.75 11.984375 
Q 45.90625 5.609375 40.453125 2.21875 
Q 35.015625 -1.171875 29 -1.171875 
Q 24.609375 -1.171875 21.109375 0.6875 
Q 17.625 2.546875 15.375 5.375 
L 15.375 -19.875 
z
M 14.546875 25.640625 
Q 14.546875 15.625 18.59375 10.84375 
Q 22.65625 6.0625 28.421875 6.0625 
Q 34.28125 6.0625 38.453125 11.015625 
Q 42.625 15.96875 42.625 26.375 
Q 42.625 36.28125 38.546875 41.203125 
Q 34.46875 46.140625 28.8125 46.140625 
Q 23.1875 46.140625 18.859375 40.890625 
Q 14.546875 35.640625 14.546875 25.640625 
z
" id="ArialMT-112"/>
      </defs>
      <g style="fill:#262626;" transform="translate(374.723393 261.470625)rotate(-90)scale(0.13 -0.13)">
       <use xlink:href="#ArialMT-71"/>
       <use x="77.783203" xlink:href="#ArialMT-65"/>
       <use x="144.482422" xlink:href="#ArialMT-68"/>
       <use x="216.699219" xlink:href="#ArialMT-50"/>
       <use x="272.314453" xlink:href="#ArialMT-107"/>
       <use x="322.314453" xlink:href="#ArialMT-116"/>
       <use x="350.097656" xlink:href="#ArialMT-112"/>
       <use x="405.712891" xlink:href="#ArialMT-112"/>
      </g>
     </g>
    </g>
    <g id="xtick_20">
     <g id="line2d_70">
      <g>
       <use style="fill:#262626;stroke:#262626;stroke-width:1.875;" x="387.423967" xlink:href="#m635f945e0d" y="189"/>
      </g>
     </g>
     <g id="text_23">
      <!-- FRUptspp -->
      <defs>
       <path d="M 54.6875 71.578125 
L 64.15625 71.578125 
L 64.15625 30.21875 
Q 64.15625 19.4375 61.71875 13.078125 
Q 59.28125 6.734375 52.90625 2.75 
Q 46.53125 -1.21875 36.1875 -1.21875 
Q 26.125 -1.21875 19.71875 2.25 
Q 13.328125 5.71875 10.59375 12.28125 
Q 7.859375 18.84375 7.859375 30.21875 
L 7.859375 71.578125 
L 17.328125 71.578125 
L 17.328125 30.28125 
Q 17.328125 20.953125 19.0625 16.53125 
Q 20.796875 12.109375 25.015625 9.71875 
Q 29.25 7.328125 35.359375 7.328125 
Q 45.796875 7.328125 50.234375 12.0625 
Q 54.6875 16.796875 54.6875 30.28125 
z
" id="ArialMT-85"/>
      </defs>
      <g style="fill:#262626;" transform="translate(390.78467 260.01625)rotate(-90)scale(0.13 -0.13)">
       <use xlink:href="#ArialMT-70"/>
       <use x="61.083984" xlink:href="#ArialMT-82"/>
       <use x="133.300781" xlink:href="#ArialMT-85"/>
       <use x="205.517578" xlink:href="#ArialMT-112"/>
       <use x="261.132812" xlink:href="#ArialMT-116"/>
       <use x="288.916016" xlink:href="#ArialMT-115"/>
       <use x="338.916016" xlink:href="#ArialMT-112"/>
       <use x="394.53125" xlink:href="#ArialMT-112"/>
      </g>
     </g>
    </g>
    <g id="xtick_21">
     <g id="line2d_71">
      <g>
       <use style="fill:#262626;stroke:#262626;stroke-width:1.875;" x="403.564463" xlink:href="#m635f945e0d" y="189"/>
      </g>
     </g>
     <g id="text_24">
      <!-- GLCabcpp -->
      <defs>
       <path d="M 14.703125 0 
L 6.546875 0 
L 6.546875 71.578125 
L 15.328125 71.578125 
L 15.328125 46.046875 
Q 20.90625 53.03125 29.546875 53.03125 
Q 34.328125 53.03125 38.59375 51.09375 
Q 42.875 49.171875 45.625 45.671875 
Q 48.390625 42.1875 49.953125 37.25 
Q 51.515625 32.328125 51.515625 26.703125 
Q 51.515625 13.375 44.921875 6.09375 
Q 38.328125 -1.171875 29.109375 -1.171875 
Q 19.921875 -1.171875 14.703125 6.5 
z
M 14.59375 26.3125 
Q 14.59375 17 17.140625 12.84375 
Q 21.296875 6.0625 28.375 6.0625 
Q 34.125 6.0625 38.328125 11.0625 
Q 42.53125 16.0625 42.53125 25.984375 
Q 42.53125 36.140625 38.5 40.96875 
Q 34.46875 45.796875 28.765625 45.796875 
Q 23 45.796875 18.796875 40.796875 
Q 14.59375 35.796875 14.59375 26.3125 
z
" id="ArialMT-98"/>
      </defs>
      <g style="fill:#262626;" transform="translate(407.004385 263.646094)rotate(-90)scale(0.13 -0.13)">
       <use xlink:href="#ArialMT-71"/>
       <use x="77.783203" xlink:href="#ArialMT-76"/>
       <use x="133.398438" xlink:href="#ArialMT-67"/>
       <use x="205.615234" xlink:href="#ArialMT-97"/>
       <use x="261.230469" xlink:href="#ArialMT-98"/>
       <use x="316.845703" xlink:href="#ArialMT-99"/>
       <use x="366.845703" xlink:href="#ArialMT-112"/>
       <use x="422.460938" xlink:href="#ArialMT-112"/>
      </g>
     </g>
    </g>
    <g id="xtick_22">
     <g id="line2d_72">
      <g>
       <use style="fill:#262626;stroke:#262626;stroke-width:1.875;" x="419.704959" xlink:href="#m635f945e0d" y="189"/>
      </g>
     </g>
     <g id="text_25">
      <!-- DDPA -->
      <g style="fill:#262626;" transform="translate(423.065662 237.605469)rotate(-90)scale(0.13 -0.13)">
       <use xlink:href="#ArialMT-68"/>
       <use x="72.216797" xlink:href="#ArialMT-68"/>
       <use x="144.433594" xlink:href="#ArialMT-80"/>
       <use x="211.023438" xlink:href="#ArialMT-65"/>
      </g>
     </g>
    </g>
    <g id="xtick_23">
     <g id="line2d_73">
      <g>
       <use style="fill:#262626;stroke:#262626;stroke-width:1.875;" x="435.845455" xlink:href="#m635f945e0d" y="189"/>
      </g>
     </g>
     <g id="text_26">
      <!-- PCADYOX -->
      <g style="fill:#262626;" transform="translate(439.206158 265.074062)rotate(-90)scale(0.13 -0.13)">
       <use xlink:href="#ArialMT-80"/>
       <use x="66.699219" xlink:href="#ArialMT-67"/>
       <use x="138.916016" xlink:href="#ArialMT-65"/>
       <use x="205.615234" xlink:href="#ArialMT-68"/>
       <use x="277.832031" xlink:href="#ArialMT-89"/>
       <use x="344.53125" xlink:href="#ArialMT-79"/>
       <use x="422.314453" xlink:href="#ArialMT-88"/>
      </g>
     </g>
    </g>
   </g>
   <g id="matplotlib.axis_3">
    <g id="ytick_3">
     <g id="line2d_74">
      <g>
       <use style="fill:#262626;stroke:#262626;stroke-width:1.875;" x="63" xlink:href="#m9d41c39ee2" y="182.822727"/>
      </g>
     </g>
     <g id="text_27">
      <!-- 0.1 -->
      <defs>
       <path d="M 52.828125 31.203125 
L 5.5625 31.203125 
L 5.5625 39.40625 
L 52.828125 39.40625 
z
" id="ArialMT-8722"/>
      </defs>
      <g style="fill:#262626;" transform="translate(17.927969 188.727923)scale(0.165 -0.165)">
       <use xlink:href="#ArialMT-8722"/>
       <use x="58.398438" xlink:href="#ArialMT-48"/>
       <use x="114.013672" xlink:href="#ArialMT-46"/>
       <use x="141.796875" xlink:href="#ArialMT-49"/>
      </g>
     </g>
    </g>
    <g id="ytick_4">
     <g id="line2d_75">
      <g>
       <use style="fill:#262626;stroke:#262626;stroke-width:1.875;" x="63" xlink:href="#m9d41c39ee2" y="151.936364"/>
      </g>
     </g>
     <g id="text_28">
      <!-- 0.0 -->
      <g style="fill:#262626;" transform="translate(27.565 157.841559)scale(0.165 -0.165)">
       <use xlink:href="#ArialMT-48"/>
       <use x="55.615234" xlink:href="#ArialMT-46"/>
       <use x="83.398438" xlink:href="#ArialMT-48"/>
      </g>
     </g>
    </g>
    <g id="ytick_5">
     <g id="line2d_76">
      <g>
       <use style="fill:#262626;stroke:#262626;stroke-width:1.875;" x="63" xlink:href="#m9d41c39ee2" y="121.05"/>
      </g>
     </g>
     <g id="text_29">
      <!-- 0.1 -->
      <g style="fill:#262626;" transform="translate(27.565 126.955195)scale(0.165 -0.165)">
       <use xlink:href="#ArialMT-48"/>
       <use x="55.615234" xlink:href="#ArialMT-46"/>
       <use x="83.398438" xlink:href="#ArialMT-49"/>
      </g>
     </g>
    </g>
   </g>
   <g id="line2d_77">
    <path clip-path="url(#p25a3f3a081)" d="M 80.754545 185.204207 
L 80.754545 165.432775 
" style="fill:none;stroke:#55a868;stroke-linecap:round;stroke-width:2.25;"/>
   </g>
   <g id="line2d_78">
    <path clip-path="url(#p25a3f3a081)" d="M 80.754545 175.080236 
" style="fill:none;stroke:#55a868;stroke-linecap:round;stroke-width:2.25;"/>
    <g clip-path="url(#p25a3f3a081)">
     <use style="fill:#55a868;stroke:#55a868;" x="80.754545" xlink:href="#m4f0eaea898" y="175.080236"/>
    </g>
   </g>
   <g id="line2d_79">
    <path clip-path="url(#p25a3f3a081)" d="M 96.895041 163.445029 
L 96.895041 154.290387 
" style="fill:none;stroke:#55a868;stroke-linecap:round;stroke-width:2.25;"/>
   </g>
   <g id="line2d_80">
    <path clip-path="url(#p25a3f3a081)" d="M 96.895041 159.130134 
" style="fill:none;stroke:#55a868;stroke-linecap:round;stroke-width:2.25;"/>
    <g clip-path="url(#p25a3f3a081)">
     <use style="fill:#55a868;stroke:#55a868;" x="96.895041" xlink:href="#m4f0eaea898" y="159.130134"/>
    </g>
   </g>
   <g id="line2d_81">
    <path clip-path="url(#p25a3f3a081)" d="M 113.035537 158.153722 
L 113.035537 152.234623 
" style="fill:none;stroke:#55a868;stroke-linecap:round;stroke-width:2.25;"/>
   </g>
   <g id="line2d_82">
    <path clip-path="url(#p25a3f3a081)" d="M 113.035537 155.212198 
" style="fill:none;stroke:#55a868;stroke-linecap:round;stroke-width:2.25;"/>
    <g clip-path="url(#p25a3f3a081)">
     <use style="fill:#55a868;stroke:#55a868;" x="113.035537" xlink:href="#m4f0eaea898" y="155.212198"/>
    </g>
   </g>
   <g id="line2d_83">
    <path clip-path="url(#p25a3f3a081)" d="M 129.176033 158.062745 
L 129.176033 152.374459 
" style="fill:none;stroke:#55a868;stroke-linecap:round;stroke-width:2.25;"/>
   </g>
   <g id="line2d_84">
    <path clip-path="url(#p25a3f3a081)" d="M 129.176033 155.068104 
" style="fill:none;stroke:#55a868;stroke-linecap:round;stroke-width:2.25;"/>
    <g clip-path="url(#p25a3f3a081)">
     <use style="fill:#55a868;stroke:#55a868;" x="129.176033" xlink:href="#m4f0eaea898" y="155.068104"/>
    </g>
   </g>
   <g id="line2d_85">
    <path clip-path="url(#p25a3f3a081)" d="M 145.316529 155.785057 
L 145.316529 153.508216 
" style="fill:none;stroke:#55a868;stroke-linecap:round;stroke-width:2.25;"/>
   </g>
   <g id="line2d_86">
    <path clip-path="url(#p25a3f3a081)" d="M 145.316529 154.709735 
" style="fill:none;stroke:#55a868;stroke-linecap:round;stroke-width:2.25;"/>
    <g clip-path="url(#p25a3f3a081)">
     <use style="fill:#55a868;stroke:#55a868;" x="145.316529" xlink:href="#m4f0eaea898" y="154.709735"/>
    </g>
   </g>
   <g id="line2d_87">
    <path clip-path="url(#p25a3f3a081)" d="M 161.457025 154.895846 
L 161.457025 152.362048 
" style="fill:none;stroke:#55a868;stroke-linecap:round;stroke-width:2.25;"/>
   </g>
   <g id="line2d_88">
    <path clip-path="url(#p25a3f3a081)" d="M 161.457025 153.478376 
" style="fill:none;stroke:#55a868;stroke-linecap:round;stroke-width:2.25;"/>
    <g clip-path="url(#p25a3f3a081)">
     <use style="fill:#55a868;stroke:#55a868;" x="161.457025" xlink:href="#m4f0eaea898" y="153.478376"/>
    </g>
   </g>
   <g id="line2d_89">
    <path clip-path="url(#p25a3f3a081)" d="M 177.597521 154.020181 
L 177.597521 152.112095 
" style="fill:none;stroke:#55a868;stroke-linecap:round;stroke-width:2.25;"/>
   </g>
   <g id="line2d_90">
    <path clip-path="url(#p25a3f3a081)" d="M 177.597521 153.222234 
" style="fill:none;stroke:#55a868;stroke-linecap:round;stroke-width:2.25;"/>
    <g clip-path="url(#p25a3f3a081)">
     <use style="fill:#55a868;stroke:#55a868;" x="177.597521" xlink:href="#m4f0eaea898" y="153.222234"/>
    </g>
   </g>
   <g id="line2d_91">
    <path clip-path="url(#p25a3f3a081)" d="M 193.738017 151.922808 
L 193.738017 151.022773 
" style="fill:none;stroke:#55a868;stroke-linecap:round;stroke-width:2.25;"/>
   </g>
   <g id="line2d_92">
    <path clip-path="url(#p25a3f3a081)" d="M 193.738017 151.474422 
" style="fill:none;stroke:#55a868;stroke-linecap:round;stroke-width:2.25;"/>
    <g clip-path="url(#p25a3f3a081)">
     <use style="fill:#55a868;stroke:#55a868;" x="193.738017" xlink:href="#m4f0eaea898" y="151.474422"/>
    </g>
   </g>
   <g id="line2d_93">
    <path clip-path="url(#p25a3f3a081)" d="M 209.878512 151.871055 
L 209.878512 150.023938 
" style="fill:none;stroke:#55a868;stroke-linecap:round;stroke-width:2.25;"/>
   </g>
   <g id="line2d_94">
    <path clip-path="url(#p25a3f3a081)" d="M 209.878512 150.979101 
" style="fill:none;stroke:#55a868;stroke-linecap:round;stroke-width:2.25;"/>
    <g clip-path="url(#p25a3f3a081)">
     <use style="fill:#55a868;stroke:#55a868;" x="209.878512" xlink:href="#m4f0eaea898" y="150.979101"/>
    </g>
   </g>
   <g id="line2d_95">
    <path clip-path="url(#p25a3f3a081)" d="M 226.019008 151.107396 
L 226.019008 150.793993 
" style="fill:none;stroke:#55a868;stroke-linecap:round;stroke-width:2.25;"/>
   </g>
   <g id="line2d_96">
    <path clip-path="url(#p25a3f3a081)" d="M 226.019008 150.951141 
" style="fill:none;stroke:#55a868;stroke-linecap:round;stroke-width:2.25;"/>
    <g clip-path="url(#p25a3f3a081)">
     <use style="fill:#55a868;stroke:#55a868;" x="226.019008" xlink:href="#m4f0eaea898" y="150.951141"/>
    </g>
   </g>
   <g id="line2d_97">
    <path clip-path="url(#p25a3f3a081)" d="M 242.159504 151.875741 
L 242.159504 148.580365 
" style="fill:none;stroke:#55a868;stroke-linecap:round;stroke-width:2.25;"/>
   </g>
   <g id="line2d_98">
    <path clip-path="url(#p25a3f3a081)" d="M 242.159504 150.294696 
" style="fill:none;stroke:#55a868;stroke-linecap:round;stroke-width:2.25;"/>
    <g clip-path="url(#p25a3f3a081)">
     <use style="fill:#55a868;stroke:#55a868;" x="242.159504" xlink:href="#m4f0eaea898" y="150.294696"/>
    </g>
   </g>
   <g id="line2d_99">
    <path clip-path="url(#p25a3f3a081)" d="M 258.3 151.547204 
L 258.3 148.128044 
" style="fill:none;stroke:#55a868;stroke-linecap:round;stroke-width:2.25;"/>
   </g>
   <g id="line2d_100">
    <path clip-path="url(#p25a3f3a081)" d="M 258.3 149.855158 
" style="fill:none;stroke:#55a868;stroke-linecap:round;stroke-width:2.25;"/>
    <g clip-path="url(#p25a3f3a081)">
     <use style="fill:#55a868;stroke:#55a868;" x="258.3" xlink:href="#m4f0eaea898" y="149.855158"/>
    </g>
   </g>
   <g id="line2d_101">
    <path clip-path="url(#p25a3f3a081)" d="M 274.440496 149.722899 
L 274.440496 148.64366 
" style="fill:none;stroke:#55a868;stroke-linecap:round;stroke-width:2.25;"/>
   </g>
   <g id="line2d_102">
    <path clip-path="url(#p25a3f3a081)" d="M 274.440496 149.12961 
" style="fill:none;stroke:#55a868;stroke-linecap:round;stroke-width:2.25;"/>
    <g clip-path="url(#p25a3f3a081)">
     <use style="fill:#55a868;stroke:#55a868;" x="274.440496" xlink:href="#m4f0eaea898" y="149.12961"/>
    </g>
   </g>
   <g id="line2d_103">
    <path clip-path="url(#p25a3f3a081)" d="M 290.580992 151.904834 
L 290.580992 144.73497 
" style="fill:none;stroke:#55a868;stroke-linecap:round;stroke-width:2.25;"/>
   </g>
   <g id="line2d_104">
    <path clip-path="url(#p25a3f3a081)" d="M 290.580992 148.622447 
" style="fill:none;stroke:#55a868;stroke-linecap:round;stroke-width:2.25;"/>
    <g clip-path="url(#p25a3f3a081)">
     <use style="fill:#55a868;stroke:#55a868;" x="290.580992" xlink:href="#m4f0eaea898" y="148.622447"/>
    </g>
   </g>
   <g id="line2d_105">
    <path clip-path="url(#p25a3f3a081)" d="M 306.721488 148.322087 
L 306.721488 144.097546 
" style="fill:none;stroke:#55a868;stroke-linecap:round;stroke-width:2.25;"/>
   </g>
   <g id="line2d_106">
    <path clip-path="url(#p25a3f3a081)" d="M 306.721488 146.278949 
" style="fill:none;stroke:#55a868;stroke-linecap:round;stroke-width:2.25;"/>
    <g clip-path="url(#p25a3f3a081)">
     <use style="fill:#55a868;stroke:#55a868;" x="306.721488" xlink:href="#m4f0eaea898" y="146.278949"/>
    </g>
   </g>
   <g id="line2d_107">
    <path clip-path="url(#p25a3f3a081)" d="M 322.861983 148.736949 
L 322.861983 143.506183 
" style="fill:none;stroke:#55a868;stroke-linecap:round;stroke-width:2.25;"/>
   </g>
   <g id="line2d_108">
    <path clip-path="url(#p25a3f3a081)" d="M 322.861983 146.150481 
" style="fill:none;stroke:#55a868;stroke-linecap:round;stroke-width:2.25;"/>
    <g clip-path="url(#p25a3f3a081)">
     <use style="fill:#55a868;stroke:#55a868;" x="322.861983" xlink:href="#m4f0eaea898" y="146.150481"/>
    </g>
   </g>
   <g id="line2d_109">
    <path clip-path="url(#p25a3f3a081)" d="M 339.002479 147.915989 
L 339.002479 142.932714 
" style="fill:none;stroke:#55a868;stroke-linecap:round;stroke-width:2.25;"/>
   </g>
   <g id="line2d_110">
    <path clip-path="url(#p25a3f3a081)" d="M 339.002479 145.49525 
" style="fill:none;stroke:#55a868;stroke-linecap:round;stroke-width:2.25;"/>
    <g clip-path="url(#p25a3f3a081)">
     <use style="fill:#55a868;stroke:#55a868;" x="339.002479" xlink:href="#m4f0eaea898" y="145.49525"/>
    </g>
   </g>
   <g id="line2d_111">
    <path clip-path="url(#p25a3f3a081)" d="M 355.142975 148.345222 
L 355.142975 138.132022 
" style="fill:none;stroke:#55a868;stroke-linecap:round;stroke-width:2.25;"/>
   </g>
   <g id="line2d_112">
    <path clip-path="url(#p25a3f3a081)" d="M 355.142975 143.354472 
" style="fill:none;stroke:#55a868;stroke-linecap:round;stroke-width:2.25;"/>
    <g clip-path="url(#p25a3f3a081)">
     <use style="fill:#55a868;stroke:#55a868;" x="355.142975" xlink:href="#m4f0eaea898" y="143.354472"/>
    </g>
   </g>
   <g id="line2d_113">
    <path clip-path="url(#p25a3f3a081)" d="M 371.283471 147.041612 
L 371.283471 138.531699 
" style="fill:none;stroke:#55a868;stroke-linecap:round;stroke-width:2.25;"/>
   </g>
   <g id="line2d_114">
    <path clip-path="url(#p25a3f3a081)" d="M 371.283471 142.998913 
" style="fill:none;stroke:#55a868;stroke-linecap:round;stroke-width:2.25;"/>
    <g clip-path="url(#p25a3f3a081)">
     <use style="fill:#55a868;stroke:#55a868;" x="371.283471" xlink:href="#m4f0eaea898" y="142.998913"/>
    </g>
   </g>
   <g id="line2d_115">
    <path clip-path="url(#p25a3f3a081)" d="M 387.423967 149.32651 
L 387.423967 133.112202 
" style="fill:none;stroke:#55a868;stroke-linecap:round;stroke-width:2.25;"/>
   </g>
   <g id="line2d_116">
    <path clip-path="url(#p25a3f3a081)" d="M 387.423967 141.263355 
" style="fill:none;stroke:#55a868;stroke-linecap:round;stroke-width:2.25;"/>
    <g clip-path="url(#p25a3f3a081)">
     <use style="fill:#55a868;stroke:#55a868;" x="387.423967" xlink:href="#m4f0eaea898" y="141.263355"/>
    </g>
   </g>
   <g id="line2d_117">
    <path clip-path="url(#p25a3f3a081)" d="M 403.564463 140.02421 
L 403.564463 135.947803 
" style="fill:none;stroke:#55a868;stroke-linecap:round;stroke-width:2.25;"/>
   </g>
   <g id="line2d_118">
    <path clip-path="url(#p25a3f3a081)" d="M 403.564463 138.042356 
" style="fill:none;stroke:#55a868;stroke-linecap:round;stroke-width:2.25;"/>
    <g clip-path="url(#p25a3f3a081)">
     <use style="fill:#55a868;stroke:#55a868;" x="403.564463" xlink:href="#m4f0eaea898" y="138.042356"/>
    </g>
   </g>
   <g id="line2d_119">
    <path clip-path="url(#p25a3f3a081)" d="M 419.704959 133.817666 
L 419.704959 125.571709 
" style="fill:none;stroke:#55a868;stroke-linecap:round;stroke-width:2.25;"/>
   </g>
   <g id="line2d_120">
    <path clip-path="url(#p25a3f3a081)" d="M 419.704959 129.725467 
" style="fill:none;stroke:#55a868;stroke-linecap:round;stroke-width:2.25;"/>
    <g clip-path="url(#p25a3f3a081)">
     <use style="fill:#55a868;stroke:#55a868;" x="419.704959" xlink:href="#m4f0eaea898" y="129.725467"/>
    </g>
   </g>
   <g id="line2d_121">
    <path clip-path="url(#p25a3f3a081)" style="fill:none;stroke:#55a868;stroke-linecap:round;stroke-width:2.25;"/>
   </g>
   <g id="line2d_122">
    <path clip-path="url(#p25a3f3a081)" style="fill:none;stroke:#55a868;stroke-linecap:round;stroke-width:2.25;"/>
    <g clip-path="url(#p25a3f3a081)"/>
   </g>
   <g id="line2d_123">
    <path d="M 57.141 115.984636 
L 68.859 113.760818 
" style="fill:none;stroke:#1a1a1a;stroke-linecap:round;stroke-width:2.25;"/>
   </g>
   <g id="line2d_124">
    <path d="M 447.741 115.984636 
L 459.459 113.760818 
" style="fill:none;stroke:#1a1a1a;stroke-linecap:round;stroke-width:2.25;"/>
   </g>
   <g id="patch_6">
    <path d="M 63 189 
L 63 114.872727 
" style="fill:none;stroke:#262626;stroke-linecap:square;stroke-linejoin:miter;stroke-width:1.875;"/>
   </g>
   <g id="patch_7">
    <path d="M 453.6 189 
L 453.6 114.872727 
" style="fill:none;stroke:#262626;stroke-linecap:square;stroke-linejoin:miter;stroke-width:1.875;"/>
   </g>
   <g id="patch_8">
    <path d="M 63 189 
L 453.6 189 
" style="fill:none;stroke:#262626;stroke-linecap:square;stroke-linejoin:miter;stroke-width:1.875;"/>
   </g>
  </g>
 </g>
 <defs>
  <clipPath id="p0dab219aef">
   <rect height="74.127273" width="390.6" x="63" y="25.92"/>
  </clipPath>
  <clipPath id="p25a3f3a081">
   <rect height="74.127273" width="390.6" x="63" y="114.872727"/>
  </clipPath>
 </defs>
</svg>
